<svg width="644" height="562" viewBox="0 0 644 562" fill="none" xmlns="http://www.w3.org/2000/svg">
<path d="M327.988 334.248C329.705 335.657 330.807 337.69 331.03 339.986L338.05 411.527C338.354 414.598 337.032 417.5 334.527 419.299C332.02 421.091 328.846 421.406 326.037 420.133L260.559 390.457C257.75 389.185 255.89 386.592 255.592 383.52C255.288 380.449 256.61 377.547 259.115 375.749L317.58 333.882C320.086 332.09 323.26 331.776 326.069 333.048C326.774 333.369 327.421 333.773 328 334.245L327.988 334.248ZM262.531 386.088L328.01 415.764C329.241 416.318 330.629 416.181 331.726 415.401C332.821 414.616 333.402 413.347 333.265 412.002L326.246 340.461C326.116 339.12 325.3 337.984 324.07 337.43C322.844 336.875 321.454 337.006 320.353 337.793L261.888 379.66C260.793 380.445 260.212 381.714 260.35 383.059C260.48 384.4 261.295 385.536 262.52 386.091L262.531 386.088Z" fill="#D0FF3C"/>
<path d="M333.949 307.38C335.269 308.829 336.044 310.704 336.114 312.734L361.855 426.929C361.895 427.097 361.911 427.271 361.916 427.449C361.925 430.501 360.357 433.248 357.718 434.781C355.161 436.273 352.115 436.33 349.517 434.951L237.721 400.162C237.553 400.109 237.392 400.042 237.244 399.952C234.592 398.44 233.003 395.706 232.989 392.655C232.974 389.697 234.447 387.032 236.943 385.47L322.998 306.063C323.127 305.948 323.265 305.843 323.419 305.751C326.057 304.213 329.219 304.198 331.867 305.718C332.657 306.17 333.359 306.732 333.949 307.38ZM357.108 427.702L331.382 313.558C331.342 313.39 331.326 313.215 331.32 313.038C331.314 311.719 330.629 310.541 329.482 309.885C328.401 309.271 327.133 309.24 326.036 309.791L240.021 389.163C239.892 389.278 239.754 389.384 239.599 389.475C238.458 390.137 237.78 391.321 237.787 392.64C237.791 393.879 238.397 394.998 239.427 395.674L351.169 430.447C351.338 430.499 351.498 430.567 351.646 430.656C352.794 431.313 354.156 431.306 355.296 430.639C356.367 430.014 357.034 428.925 357.103 427.703L357.108 427.702Z" fill="#D0FF3C"/>
<path d="M332.976 276.967C334.165 278.273 334.914 279.939 335.097 281.771L389.907 438.534C389.983 438.748 390.025 438.971 390.037 439.196C390.206 442.223 388.792 445.015 386.255 446.674C383.824 448.267 380.842 448.492 378.215 447.299L215.009 416.412C214.787 416.367 214.576 416.295 214.37 416.197C211.666 414.834 209.952 412.209 209.783 409.181C209.623 406.275 210.916 403.584 213.263 401.909L321.66 276.034C321.806 275.865 321.975 275.714 322.163 275.589C324.7 273.93 327.832 273.756 330.53 275.121C331.469 275.6 332.292 276.221 332.971 276.968L332.976 276.967ZM385.251 439.757L330.467 283.062C330.39 282.848 330.348 282.625 330.338 282.406C330.263 281.111 329.533 279.99 328.375 279.41C327.309 278.873 326.085 278.891 325.054 279.455L216.703 405.275C216.558 405.444 216.389 405.595 216.199 405.714C215.114 406.423 214.513 407.617 214.581 408.913C214.646 410.105 215.277 411.155 216.282 411.764L379.423 442.638C379.645 442.683 379.856 442.755 380.062 442.854C381.216 443.441 382.552 443.361 383.637 442.652C384.638 441.997 385.23 440.929 385.257 439.756L385.251 439.757Z" fill="#D0FF3C"/>
<path d="M332.012 246.54C333.094 247.726 333.814 249.215 334.067 250.874L417.978 450.257C418.067 450.474 418.128 450.698 418.155 450.931C418.48 453.922 417.219 456.777 414.789 458.555C412.461 460.256 409.521 460.636 406.857 459.602L192.177 432.608C191.947 432.578 191.72 432.516 191.51 432.425C188.754 431.212 186.915 428.695 186.59 425.704C186.28 422.838 187.419 420.103 189.654 418.31L320.424 245.921C320.564 245.735 320.73 245.572 320.921 245.434C323.351 243.656 326.451 243.319 329.207 244.532C330.302 245.018 331.254 245.703 332.021 246.549L332.012 246.54ZM413.396 451.75L329.516 252.433C329.426 252.217 329.365 251.993 329.339 251.759C329.203 250.488 328.42 249.424 327.254 248.908C326.181 248.434 324.988 248.518 323.996 249.115L193.265 421.444C193.125 421.631 192.959 421.793 192.768 421.931C191.739 422.686 191.203 423.894 191.344 425.164C191.471 426.333 192.135 427.324 193.155 427.874L407.765 454.856C407.995 454.886 408.222 454.948 408.432 455.039C409.603 455.553 410.916 455.412 411.945 454.657C412.892 453.961 413.421 452.885 413.391 451.733L413.396 451.75Z" fill="#D0FF3C"/>
<path d="M331.058 216.103C332.042 217.181 332.727 218.519 333.033 220.009L446.063 462.032C446.154 462.23 446.225 462.445 446.259 462.664C446.743 465.624 445.642 468.522 443.32 470.425C441.087 472.248 438.176 472.78 435.467 471.876L169.284 448.783C169.062 448.763 168.846 448.717 168.639 448.638C165.832 447.575 163.869 445.171 163.393 442.215C162.929 439.373 163.924 436.584 166.063 434.688L319.222 215.756C319.346 215.574 319.5 215.415 319.67 215.27C321.994 213.373 325.056 212.873 327.863 213.936C329.123 214.414 330.209 215.162 331.071 216.106L331.058 216.103ZM441.553 463.722L328.552 221.759C328.461 221.561 328.39 221.346 328.356 221.127C328.152 219.88 327.327 218.865 326.144 218.421C325.051 218.009 323.869 218.157 322.923 218.81L169.803 437.682C169.679 437.864 169.525 438.023 169.355 438.168C168.374 438.966 167.91 440.19 168.114 441.437C168.303 442.589 169.018 443.536 170.06 444.03L436.174 467.117C436.395 467.137 436.611 467.183 436.818 467.262C438.002 467.712 439.291 467.503 440.27 466.7C441.174 465.96 441.641 464.864 441.546 463.718L441.553 463.722Z" fill="#D0FF3C"/>
<path d="M330.113 185.658C331.002 186.632 331.653 187.825 331.998 189.163L474.158 473.842C474.249 474.02 474.312 474.207 474.353 474.4C474.993 477.323 474.048 480.271 471.836 482.286C469.704 484.23 466.815 484.911 464.051 484.145L146.346 464.953C146.145 464.939 145.951 464.906 145.761 464.846C142.909 463.937 140.824 461.647 140.183 458.724C139.565 455.905 140.416 453.063 142.463 451.056L318.008 185.569C318.118 185.404 318.249 185.251 318.392 185.119C320.604 183.104 323.633 182.441 326.486 183.35C327.911 183.801 329.141 184.602 330.099 185.65L330.113 185.658ZM469.707 475.682L327.581 191.056C327.489 190.877 327.426 190.691 327.386 190.498C327.119 189.268 326.24 188.304 325.044 187.926C323.929 187.569 322.753 187.784 321.843 188.5L146.332 453.935C146.222 454.1 146.091 454.253 145.948 454.385C145.017 455.23 144.621 456.473 144.893 457.702C145.142 458.843 145.92 459.755 146.988 460.186L464.63 479.371C464.831 479.384 465.025 479.418 465.214 479.477C466.411 479.861 467.687 479.582 468.618 478.737C469.483 477.946 469.886 476.818 469.724 475.677L469.707 475.682Z" fill="#D0FF3C"/>
<path d="M329.183 155.197C329.984 156.077 330.598 157.132 330.965 158.322L502.255 485.663C502.334 485.814 502.396 485.976 502.44 486.137C503.237 489.024 502.453 492.021 500.352 494.147C498.315 496.213 495.45 497.049 492.635 496.413L123.404 481.129C123.235 481.12 123.062 481.099 122.902 481.056C120.006 480.301 117.798 478.13 117.007 475.242C116.234 472.446 116.945 469.544 118.902 467.432L316.842 155.376C316.933 155.234 317.039 155.1 317.159 154.975C319.259 152.842 322.244 152.018 325.141 152.773C326.736 153.19 328.12 154.036 329.176 155.193L329.183 155.197ZM497.871 487.633L326.606 160.341C326.528 160.19 326.466 160.028 326.422 159.867C326.092 158.654 325.159 157.742 323.943 157.425C322.8 157.125 321.619 157.415 320.751 158.194L122.841 470.205C122.75 470.347 122.644 470.48 122.524 470.606C121.638 471.501 121.314 472.762 121.644 473.974C121.954 475.118 122.796 475.987 123.907 476.351L493.076 491.634C493.245 491.644 493.418 491.665 493.578 491.707C494.793 492.025 496.051 491.676 496.931 490.783C497.764 489.939 498.101 488.774 497.864 487.629L497.871 487.633Z" fill="#D0FF3C"/>
<path d="M328.263 124.727C328.982 125.512 329.552 126.449 329.929 127.495L530.363 497.499C530.428 497.624 530.487 497.75 530.529 497.88C531.481 500.725 530.863 503.763 528.868 506.009C526.932 508.196 524.084 509.186 521.219 508.682L100.456 497.307C100.319 497.301 100.18 497.29 100.042 497.259C97.102 496.664 94.7769 494.606 93.8243 491.761C92.8978 488.989 93.463 486.028 95.3335 483.803L315.663 125.179C315.736 125.061 315.816 124.947 315.912 124.846C317.901 122.602 320.843 121.617 323.782 122.212C325.553 122.57 327.097 123.458 328.257 124.728L328.263 124.727ZM526.032 499.572L325.621 129.611C325.557 129.486 325.498 129.361 325.456 129.23C325.056 128.03 324.073 127.162 322.838 126.912C321.661 126.671 320.477 127.036 319.646 127.885L99.3372 486.472C99.2645 486.591 99.1829 486.699 99.0882 486.805C98.2463 487.75 97.9908 489.036 98.391 490.235C98.7756 491.377 99.6771 492.218 100.83 492.509L521.545 503.891C521.683 503.897 521.822 503.908 521.96 503.939C523.202 504.193 524.44 503.776 525.275 502.827C526.073 501.925 526.35 500.72 526.026 499.574L526.032 499.572Z" fill="#D0FF3C"/>
<path d="M327.358 94.246C327.992 94.9437 328.516 95.7577 328.899 96.6657L558.472 509.336C558.521 509.427 558.567 509.526 558.605 509.621C559.712 512.423 559.254 515.504 557.376 517.86C555.536 520.175 552.711 521.32 549.793 520.941L77.4992 513.475C77.3936 513.473 77.2865 513.465 77.1836 513.45C74.2052 513.007 71.7656 511.073 70.6578 508.27C69.5714 505.523 69.9924 502.508 71.7811 500.164L314.511 94.9697C314.567 94.8805 314.623 94.7912 314.694 94.7103C316.564 92.35 319.464 91.2095 322.443 91.652C324.386 91.9441 326.1 92.8664 327.365 94.2502L327.358 94.246ZM554.193 511.512L324.635 98.8747C324.585 98.7832 324.54 98.6845 324.502 98.5899C324.031 97.4035 322.999 96.5797 321.738 96.392C320.522 96.2106 319.334 96.657 318.543 97.582L75.8266 502.76C75.7706 502.85 75.7146 502.939 75.644 503.02C74.8481 504.02 74.6537 505.326 75.1244 506.512C75.5769 507.654 76.5557 508.462 77.7524 508.685L550.022 516.152C550.128 516.154 550.235 516.162 550.338 516.177C551.599 516.365 552.831 515.881 553.627 514.881C554.391 513.92 554.601 512.672 554.194 511.518L554.193 511.512Z" fill="#D0FF3C"/>
<path d="M326.471 63.7607C327.026 64.3747 327.5 65.0728 327.867 65.8554L586.589 521.182C586.623 521.241 586.653 521.307 586.684 521.373C587.945 524.127 587.645 527.245 585.885 529.717C584.147 532.159 581.346 533.458 578.371 533.212L54.5398 529.656C54.4718 529.656 54.3966 529.652 54.3272 529.646C51.3115 529.362 48.7615 527.544 47.4986 524.783C46.2523 522.062 46.5276 518.987 48.2301 516.531L313.346 64.7575C313.385 64.6974 313.419 64.639 313.458 64.5789C315.218 62.1068 318.068 60.8069 321.086 61.097C323.202 61.2988 325.092 62.2536 326.471 63.7607ZM582.354 523.451L323.649 68.1386C323.614 68.0801 323.584 68.0142 323.554 67.9484C323.016 66.7677 321.923 65.9915 320.637 65.8721C319.376 65.7523 318.186 66.2797 317.435 67.2863L52.3201 519.041C52.2809 519.101 52.2474 519.159 52.2081 519.219C51.4581 520.275 51.3264 521.607 51.8692 522.786C52.3912 523.934 53.4459 524.702 54.6974 524.856L578.504 528.411C578.572 528.411 578.648 528.415 578.717 528.421C580.004 528.546 581.222 527.986 581.978 526.929C582.71 525.897 582.853 524.606 582.359 523.45L582.354 523.451Z" fill="#D0FF3C"/>
<path d="M325.592 33.2608C326.075 33.7896 326.489 34.3806 326.833 35.0337L614.7 533.031C614.715 533.063 614.734 533.089 614.75 533.122C616.159 535.83 616.022 538.984 614.383 541.559C612.752 544.119 609.976 545.578 606.945 545.465L31.5757 545.82C31.5381 545.818 31.5078 545.82 31.4702 545.818C28.4157 545.686 25.757 543.991 24.3419 541.284C22.9431 538.591 23.0669 535.459 24.6834 532.89L312.185 34.5379C312.185 34.5379 312.219 34.4794 312.241 34.4486C313.881 31.8735 316.687 30.4127 319.736 30.5461C322.028 30.6446 324.105 31.6288 325.592 33.2608ZM610.517 535.378L322.659 37.391C322.644 37.3581 322.624 37.3325 322.609 37.2996C322 36.1262 320.851 35.3958 319.533 35.3407C318.227 35.2825 317.031 35.8981 316.32 36.9862L28.811 535.335C28.811 535.335 28.7775 535.393 28.7551 535.424C28.0452 536.537 27.9834 537.899 28.5984 539.071C29.1971 540.228 30.3333 540.956 31.6309 541.029L606.993 540.669C607.03 540.671 607.06 540.669 607.098 540.671C608.416 540.726 609.628 540.1 610.338 538.987C611.039 537.889 611.106 536.545 610.519 535.384L610.517 535.378Z" fill="#D0FF3C"/>
<path d="M324.728 2.7512C325.132 3.19069 325.494 3.68447 325.806 4.21688L642.817 544.878C644.374 547.54 644.396 550.731 642.871 553.41C641.347 556.09 638.595 557.708 635.508 557.727L8.60315 562C5.51564 562.019 2.74238 560.447 1.18521 557.785C-0.377711 555.124 -0.393864 551.932 1.13073 549.252L311.03 4.31746C312.555 1.63788 315.308 0.0250379 318.394 0.000195595C320.858 -0.0161289 323.126 0.990104 324.734 2.74964L324.728 2.7512ZM8.56852 557.196L635.481 552.927C636.83 552.918 638.034 552.214 638.702 551.039C639.37 549.864 639.362 548.471 638.675 547.307L321.663 6.64578C320.982 5.4796 319.77 4.79107 318.421 4.80021C317.071 4.80935 315.868 5.51324 315.2 6.68856L5.30029 551.623C4.63217 552.799 4.64041 554.191 5.32745 555.356C6.01449 556.52 7.22641 557.209 8.57008 557.201L8.56852 557.196Z" fill="#D0FF3C"/>
</svg>
