<svg width="24" height="32" viewBox="0 0 24 32" fill="none" xmlns="http://www.w3.org/2000/svg">
<path d="M17.86 25.04V27.96H6.15V25.07H10.45C10.46 24.94 10.47 24.84 10.47 24.74C10.47 22.99 10.47 21.24 10.47 19.5C10.47 19.29 10.41 19.18 10.23 19.08C7.84 17.66 7.84 14.36 10.23 12.92C10.34 12.85 10.45 12.69 10.46 12.57C10.47 10.77 10.46 8.96004 10.46 7.16004C10.46 7.11004 10.45 7.05004 10.44 6.96004H6.13V4.04004H17.83V6.95004H13.52C13.52 7.10004 13.5 7.21004 13.5 7.32004C13.5 9.05004 13.5 10.77 13.5 12.5C13.5 12.71 13.55 12.84 13.75 12.95C16.13 14.37 16.12 17.66 13.75 19.09C13.64 19.16 13.51 19.31 13.51 19.43C13.5 21.26 13.51 23.08 13.51 24.91C13.51 24.94 13.51 24.98 13.53 25.05H17.84L17.86 25.04Z" fill="white"/>
<path d="M0.140015 5.46C0.140015 4.14 0.140015 2.82 0.140015 1.5C0.140015 0.82 0.450015 0.51 1.13001 0.5C2.16001 0.5 3.18001 0.5 4.21001 0.5C4.85001 0.5 5.17001 0.81 5.17001 1.45C5.17001 4.12 5.17001 6.79 5.17001 9.47C5.17001 10.15 4.86001 10.45 4.17001 10.45C3.16001 10.45 2.14001 10.45 1.13001 10.45C0.460015 10.45 0.150015 10.14 0.150015 9.45C0.150015 8.12 0.150015 6.79 0.150015 5.46H0.140015Z" fill="white"/>
<path d="M0.140015 26.51C0.140015 25.22 0.140015 23.94 0.140015 22.65C0.140015 21.83 0.420015 21.55 1.23001 21.55C2.22001 21.55 3.21001 21.55 4.21001 21.55C4.86001 21.55 5.18002 21.85 5.18002 22.49C5.18002 25.18 5.18002 27.88 5.18002 30.57C5.18002 31.17 4.85001 31.48 4.25001 31.48C3.19001 31.48 2.13001 31.48 1.07001 31.48C0.480015 31.48 0.150015 31.15 0.150015 30.56C0.150015 29.21 0.150015 27.85 0.150015 26.5L0.140015 26.51Z" fill="white"/>
<path d="M18.82 26.5301C18.82 25.2101 18.82 23.89 18.82 22.57C18.82 21.85 19.13 21.55 19.85 21.55C20.86 21.55 21.88 21.55 22.89 21.55C23.52 21.55 23.84 21.85 23.85 22.47C23.85 25.18 23.85 27.88 23.85 30.59C23.85 31.18 23.51 31.49 22.91 31.49C21.86 31.49 20.81 31.49 19.76 31.49C19.15 31.49 18.82 31.17 18.82 30.55C18.82 29.21 18.82 27.8701 18.82 26.5301Z" fill="white"/>
<path d="M18.82 5.48001C18.82 4.17001 18.82 2.86001 18.82 1.56001C18.82 0.81001 19.12 0.51001 19.85 0.51001C20.86 0.51001 21.88 0.51001 22.89 0.51001C23.53 0.51001 23.85 0.82001 23.85 1.47001C23.85 4.13001 23.85 6.79001 23.85 9.45001C23.85 10.16 23.54 10.45 22.83 10.45C21.82 10.45 20.8 10.45 19.79 10.45C19.13 10.45 18.81 10.13 18.81 9.48001C18.81 8.15001 18.81 6.82001 18.81 5.49001L18.82 5.48001Z" fill="white"/>
</svg>
