<svg width="32" height="27" viewBox="0 0 32 27" fill="none" xmlns="http://www.w3.org/2000/svg">
<path d="M27.9703 15.5268H22.0776V13.9596H27.9703V15.5268ZM14.094 19.4987L16.0995 15.5382H14.094L18.265 10.728L16.7206 14.3583L18.6127 14.3126L14.094 19.4987ZM10.3094 15.5268H8.14946V17.6866H6.58226V15.5268H4.41668V13.9596H6.58226V11.7996H8.14946V13.9596H10.3094V15.5268ZM1.47034 7.86159V26.7136H30.8654V7.86159H1.47034Z" fill="white"/>
<path d="M32 4.44228V6.69348H0V4.44228H32Z" fill="white"/>
<path d="M7.36295 1.70967V3.65869H3.9436V1.70967C3.9436 0.763593 4.70726 -4.65993e-06 5.65328 -4.65993e-06C6.12629 -4.65993e-06 6.54802 0.188107 6.86146 0.501433C7.16921 0.809232 7.36295 1.23666 7.36295 1.70967Z" fill="white"/>
<path d="M27.9703 1.70967V3.65869H24.5509V1.70967C24.5509 0.763593 25.3146 -4.65993e-06 26.2606 -4.65993e-06C26.7336 -4.65993e-06 27.161 0.188107 27.4687 0.501433C27.7822 0.809232 27.9703 1.23666 27.9703 1.70967Z" fill="white"/>
</svg>
