<svg width="22" height="47" viewBox="0 0 22 47" fill="none" xmlns="http://www.w3.org/2000/svg">
<path d="M13.2368 18.4938L10.6052 33.6658H2.79529L7.24094 18.4938H13.2368Z" fill="white"/>
<path d="M22 1.56475e-05V5.86816H0V1.56475e-05H22Z" fill="white"/>
<path d="M22 7.46848V9.7301H0V7.46848H22Z" fill="white"/>
<path d="M11.0602 16.5308C10.0642 16.5308 9.24682 15.7341 9.22508 14.738V14.6955C9.22508 13.6786 10.0502 12.8603 11.0602 12.8603C12.0771 12.8603 12.903 13.6786 12.903 14.6955C12.903 15.0158 12.8168 15.3213 12.6748 15.5843C12.355 16.1532 11.7572 16.5308 11.0602 16.5308ZM0 11.3384V21.6943H5.51222L6.36611 18.5006C6.36611 18.1027 6.64324 17.7824 7.00576 17.7824H15.0152C15.3707 17.7824 15.6556 18.1027 15.6556 18.5006L16.6151 21.6943H22V11.3384H0Z" fill="white"/>
<path d="M6.15964 45.1959C3.51337 45.1959 1.35846 43.0479 1.35846 40.3948C1.35846 37.7419 3.51337 35.5931 6.15964 35.5931C8.8129 35.5931 10.9608 37.7419 10.9608 40.3948C10.9608 43.0479 8.8129 45.1959 6.15964 45.1959ZM0 34.3772V46.7037H12.3262V34.3772H0Z" fill="white"/>
<path d="M6.15027 43.4141C4.68547 43.4141 3.4551 42.3543 3.19117 40.9599H1.89093C2.16107 43.0654 3.96743 44.6945 6.15027 44.6945C8.33467 44.6945 10.1418 43.0654 10.4119 40.9599H9.10937C8.847 42.3543 7.61663 43.4141 6.15027 43.4141ZM6.15027 37.3749C7.61663 37.3749 8.847 38.428 9.10937 39.8224H10.4119C10.1418 37.7169 8.33467 36.0878 6.15027 36.0878C3.96743 36.0878 2.16107 37.7169 1.89093 39.8224H3.19117C3.4551 38.428 4.68547 37.3749 6.15027 37.3749Z" fill="white"/>
</svg>
