<svg width="192" height="19" viewBox="0 0 192 19" fill="none" xmlns="http://www.w3.org/2000/svg">
<path d="M8.71094 15.2422C5.9401 15.2422 3.90104 14.6719 2.59375 13.5312C1.4375 12.5208 0.859375 11.1458 0.859375 9.40625C0.859375 7.66146 1.4375 6.28385 2.59375 5.27344C3.90104 4.13281 5.9401 3.5625 8.71094 3.5625C10.2891 3.5625 11.6016 3.73958 12.6484 4.09375C13.6953 4.44792 14.5156 4.93229 15.1094 5.54688C15.7083 6.15625 16.1172 6.85938 16.3359 7.65625H11.3047C10.7786 6.93229 9.91406 6.57031 8.71094 6.57031C7.57552 6.57031 6.73958 6.89583 6.20312 7.54688C5.77604 8.07292 5.5625 8.69271 5.5625 9.40625C5.5625 10.1198 5.77604 10.737 6.20312 11.2578C6.73958 11.9089 7.57552 12.2344 8.71094 12.2344C9.6276 12.2344 10.3151 12.1562 10.7734 12C11.237 11.8385 11.5755 11.6302 11.7891 11.375H9.95312V9.40625H16.3359V15.0078H14.3828L13.9844 13.9219C12.7396 14.8021 10.9818 15.2422 8.71094 15.2422ZM32.0312 15H18.5312V3.78906H31.4141V6.5625H23.2344V8.32031H30.1484V10.4766H23.2344V12.2266H32.0312V15ZM50.5391 15H44.9453L38.6094 7.41406V15H33.9062V3.78906H39.5L45.8359 11.3359V3.78906H50.5391V15ZM59.1797 15.2422C57.6641 15.2422 56.4427 15.0807 55.5156 14.7578C54.5885 14.4297 53.8828 13.9818 53.3984 13.4141C52.9141 12.8411 52.5885 12.1823 52.4219 11.4375H57.4141C57.4141 11.6979 57.5885 11.8958 57.9375 12.0312C58.2865 12.1667 58.7005 12.2344 59.1797 12.2344C60.3516 12.2344 60.9375 11.9688 60.9375 11.4375C60.9375 10.974 60.7396 10.6667 60.3438 10.5156C59.974 10.3802 59.3333 10.3125 58.4219 10.3125H58.2266V8.49219H58.4219C59.3333 8.49219 59.9792 8.42188 60.3594 8.28125C60.7448 8.14062 60.9375 7.83594 60.9375 7.36719C60.9375 6.83594 60.3516 6.57031 59.1797 6.57031C58.7005 6.57031 58.2865 6.63802 57.9375 6.77344C57.5885 6.90885 57.4141 7.10677 57.4141 7.36719H52.4219C52.5885 6.6224 52.9141 5.96615 53.3984 5.39844C53.8828 4.82552 54.5885 4.3776 55.5156 4.05469C56.4427 3.72656 57.6641 3.5625 59.1797 3.5625C60.6953 3.5625 61.9505 3.72396 62.9453 4.04688C63.9453 4.36979 64.6927 4.81771 65.1875 5.39062C65.6823 5.96354 65.9297 6.6224 65.9297 7.36719C65.9297 7.8724 65.7786 8.30729 65.4766 8.67188C65.1797 9.03646 64.7161 9.28125 64.0859 9.40625C64.7161 9.53125 65.1797 9.77604 65.4766 10.1406C65.7786 10.5052 65.9297 10.9375 65.9297 11.4375C65.9297 12.1875 65.6823 12.849 65.1875 13.4219C64.6927 13.9896 63.9453 14.4349 62.9453 14.7578C61.9505 15.0807 60.6953 15.2422 59.1797 15.2422ZM85.2812 15H71.7812V3.78906H84.6641V6.5625H76.4844V8.32031H83.3984V10.4766H76.4844V12.2266H85.2812V15ZM100.242 15H87.1562V3.78906H91.8594V12.2266H100.242V15ZM115.312 15H101.812V3.78906H114.695V6.5625H106.516V8.32031H113.43V10.4766H106.516V12.2266H115.312V15ZM123.789 15.2422C121.018 15.2422 118.979 14.6719 117.672 13.5312C116.516 12.526 115.938 11.151 115.938 9.40625C115.938 7.66146 116.516 6.28385 117.672 5.27344C118.979 4.13802 121.018 3.57031 123.789 3.57031C125.414 3.57031 126.758 3.75781 127.82 4.13281C128.883 4.5026 129.708 5.01042 130.297 5.65625C130.885 6.30208 131.276 7.04167 131.469 7.875H126.523C126.029 7.00521 125.117 6.57031 123.789 6.57031C122.654 6.57031 121.818 6.89844 121.281 7.55469C120.854 8.07552 120.641 8.69271 120.641 9.40625C120.641 10.1198 120.854 10.737 121.281 11.2578C121.818 11.9141 122.654 12.2422 123.789 12.2422C125.117 12.2422 126.029 11.8047 126.523 10.9297H131.469C131.276 11.7682 130.885 12.5104 130.297 13.1562C129.708 13.8021 128.883 14.3125 127.82 14.6875C126.758 15.0573 125.414 15.2422 123.789 15.2422ZM141.031 15H136.328V6.5625H131.938V3.78906H145.422V6.5625H141.031V15ZM162.445 15H158C157.797 14.7188 157.654 14.3594 157.57 13.9219C157.497 13.5833 157.388 13.2526 157.242 12.9297C157.096 12.6016 156.844 12.3307 156.484 12.1172C156.13 11.8984 155.602 11.7812 154.898 11.7656H151.844V15H147.141V3.78906H154.789C156.617 3.78906 158.091 3.92708 159.211 4.20312C160.336 4.47396 161.156 4.90365 161.672 5.49219C162.188 6.07552 162.445 6.83854 162.445 7.78125C162.445 8.56771 162.266 9.22917 161.906 9.76562C161.552 10.3021 160.99 10.7266 160.219 11.0391C160.964 11.3464 161.445 11.7161 161.664 12.1484C161.888 12.5755 162.026 13.0469 162.078 13.5625C162.13 14.0208 162.253 14.5 162.445 15ZM151.844 9L154.531 8.99219C155.281 8.99219 155.872 8.95833 156.305 8.89062C156.737 8.82292 157.055 8.73177 157.258 8.61719C157.466 8.4974 157.599 8.36719 157.656 8.22656C157.714 8.08073 157.742 7.93229 157.742 7.78125C157.742 7.63021 157.714 7.48177 157.656 7.33594C157.599 7.1901 157.466 7.0599 157.258 6.94531C157.055 6.82552 156.737 6.73177 156.305 6.66406C155.872 6.59635 155.281 6.5625 154.531 6.5625H151.844V9ZM183.461 15.2422C180.69 15.2422 178.651 14.6719 177.344 13.5312C176.188 12.526 175.609 11.151 175.609 9.40625C175.609 7.66146 176.188 6.28385 177.344 5.27344C178.651 4.13802 180.69 3.57031 183.461 3.57031C185.086 3.57031 186.43 3.75781 187.492 4.13281C188.555 4.5026 189.38 5.01042 189.969 5.65625C190.557 6.30208 190.948 7.04167 191.141 7.875H186.195C185.701 7.00521 184.789 6.57031 183.461 6.57031C182.326 6.57031 181.49 6.89844 180.953 7.55469C180.526 8.07552 180.312 8.69271 180.312 9.40625C180.312 10.1198 180.526 10.737 180.953 11.2578C181.49 11.9141 182.326 12.2422 183.461 12.2422C184.789 12.2422 185.701 11.8047 186.195 10.9297H191.141C190.948 11.7682 190.557 12.5104 189.969 13.1562C189.38 13.8021 188.555 14.3125 187.492 14.6875C186.43 15.0573 185.086 15.2422 183.461 15.2422Z" fill="#0002F9"/>
<g clip-path="url(#clip0_180_65)">
<path d="M173.139 1.30666C173.31 0.905294 173.182 0.436544 172.831 0.178732C172.48 -0.0790807 172.001 -0.0556432 171.673 0.231466L164.245 6.79397C163.955 7.05178 163.85 7.46486 163.987 7.82815C164.123 8.19143 164.471 8.43752 164.857 8.43752H168.093L165.861 13.6934C165.69 14.0947 165.818 14.5635 166.169 14.8213C166.52 15.0791 166.999 15.0557 167.327 14.7686L174.755 8.20607C175.045 7.94826 175.15 7.53518 175.013 7.1719C174.877 6.80861 174.532 6.56545 174.143 6.56545H170.907L173.139 1.30666Z" fill="#0002F9"/>
</g>
<defs>
<clipPath id="clip0_180_65">
<rect width="13" height="15" fill="white" transform="translate(163)"/>
</clipPath>
</defs>
</svg>
