<svg width="31" height="31" viewBox="0 0 31 31" fill="none" xmlns="http://www.w3.org/2000/svg">
<path d="M25.2725 22.1856C25.2725 23.8902 23.8897 25.2731 22.1856 25.2731H8.81431C7.11035 25.2731 5.73277 23.8902 5.73277 22.1856V8.81437C5.73277 7.11028 7.11035 5.72743 8.81431 5.72743H22.1856C23.8897 5.72743 25.2725 7.11028 25.2725 8.81437V22.1856ZM15.5001 -1.12326e-06C6.94152 -1.12326e-06 0 6.93606 0 15.5C0 24.0585 6.94152 31 15.5001 31C24.064 31 31.0056 24.0585 31.0056 15.5C31.0056 6.93606 24.064 -1.12326e-06 15.5001 -1.12326e-06Z" fill="white"/>
<path d="M21.8916 10.8342C21.8427 10.9431 21.772 11.0356 21.6848 11.1119C21.5976 11.1826 21.4942 11.2425 21.369 11.2806C21.2491 11.3187 21.113 11.3405 20.9607 11.3405C20.8844 11.3405 20.8083 11.3351 20.7373 11.3247C20.6667 11.3133 20.6012 11.303 20.547 11.2861C20.4869 11.2752 20.4433 11.2589 20.4053 11.2425C20.3673 11.2262 20.3455 11.2153 20.3346 11.2044C20.3237 11.1935 20.3128 11.1826 20.3072 11.1717C20.3019 11.1609 20.3019 11.1445 20.2963 11.1282C20.291 11.1119 20.291 11.0901 20.291 11.0683C20.291 11.0411 20.2855 11.0139 20.2855 10.9817C20.2855 10.9431 20.291 10.9104 20.291 10.8832C20.2963 10.8614 20.2963 10.8396 20.3072 10.8239C20.3128 10.807 20.3181 10.7961 20.3237 10.7906C20.3346 10.7852 20.3399 10.7803 20.3508 10.7803C20.3673 10.7803 20.3891 10.7852 20.4162 10.8021C20.438 10.8179 20.4761 10.8342 20.5196 10.8505C20.5632 10.8723 20.6177 10.8886 20.6831 10.905C20.7429 10.9164 20.8192 10.9267 20.9062 10.9267C20.9824 10.9267 21.0532 10.9164 21.1185 10.8995C21.1784 10.8832 21.2329 10.8614 21.2765 10.8239C21.3201 10.7906 21.3528 10.7471 21.3743 10.6926C21.4017 10.6442 21.4126 10.5783 21.4126 10.5081C21.4126 10.4422 21.4017 10.3878 21.3799 10.3333C21.3636 10.2843 21.331 10.2462 21.2874 10.2081C21.2491 10.1754 21.1949 10.1536 21.1239 10.1319C21.0588 10.1155 20.9769 10.1101 20.879 10.1101C20.8028 10.1101 20.732 10.1101 20.6722 10.1215C20.6068 10.1264 20.5523 10.1319 20.4978 10.1319C20.4598 10.1319 20.4271 10.1216 20.4162 10.1047C20.3944 10.0829 20.3891 10.0502 20.3891 9.99577V8.88512C20.3891 8.83612 20.4 8.79802 20.4216 8.77625C20.438 8.74903 20.4707 8.73866 20.5196 8.73866H21.7284C21.7393 8.73866 21.7502 8.74357 21.7611 8.74902C21.772 8.76046 21.7826 8.7708 21.7882 8.78713C21.7935 8.80891 21.7991 8.83069 21.8044 8.85791C21.8044 8.88513 21.81 8.91834 21.81 8.96134C21.81 9.03757 21.7991 9.09745 21.7882 9.13013C21.772 9.16879 21.7555 9.18457 21.7284 9.18457H20.8192V9.729C20.8625 9.72356 20.9118 9.72356 20.9553 9.72356C21.0043 9.71811 21.0479 9.71811 21.1021 9.71811C21.2382 9.71811 21.3581 9.73499 21.4671 9.76712C21.5758 9.79979 21.663 9.84933 21.7393 9.90866C21.81 9.97399 21.8645 10.0502 21.9025 10.1433C21.9405 10.2359 21.9623 10.3442 21.9623 10.464C21.9623 10.6055 21.9405 10.7253 21.8916 10.8342ZM16.077 11.1336C15.99 11.199 15.8867 11.254 15.7668 11.2861C15.6471 11.3247 15.511 11.3405 15.3693 11.3405C15.2821 11.3405 15.2005 11.3351 15.1242 11.3187C15.0482 11.3079 14.9828 11.2915 14.923 11.2752C14.8629 11.2589 14.814 11.2371 14.776 11.2153C14.7377 11.199 14.7106 11.1826 14.6997 11.1717C14.6888 11.1609 14.6779 11.15 14.6726 11.1391C14.667 11.1227 14.6617 11.1064 14.6617 11.0901C14.6561 11.0743 14.6508 11.0525 14.6508 11.0248C14.6452 10.9975 14.6452 10.9649 14.6452 10.9267C14.6452 10.8614 14.6508 10.8179 14.6617 10.7961C14.6726 10.7689 14.6888 10.7585 14.7106 10.7585C14.7215 10.7585 14.7433 10.7689 14.776 10.7852C14.8087 10.8021 14.852 10.8238 14.9012 10.8396C14.9501 10.8614 15.0099 10.8832 15.0753 10.8995C15.146 10.9164 15.2223 10.9267 15.3039 10.9267C15.3802 10.9267 15.4401 10.9164 15.4945 10.8995C15.5543 10.8832 15.5979 10.856 15.6362 10.8288C15.6742 10.7961 15.7069 10.7585 15.7232 10.7144C15.7449 10.6709 15.7558 10.6224 15.7558 10.5674C15.7558 10.5081 15.7397 10.4531 15.7178 10.4095C15.696 10.3605 15.6633 10.3224 15.6144 10.2843C15.5708 10.2517 15.5163 10.2244 15.4456 10.2081C15.3749 10.1918 15.293 10.1809 15.2005 10.1809H14.9772C14.961 10.1809 14.9501 10.1809 14.9339 10.1754C14.923 10.17 14.9121 10.1591 14.9065 10.1482C14.9012 10.1319 14.8956 10.1101 14.8903 10.0829C14.8847 10.0611 14.8847 10.029 14.8847 9.98544C14.8847 9.94677 14.8847 9.9141 14.8903 9.89288C14.8956 9.86511 14.9012 9.84933 14.9065 9.83788C14.9121 9.82155 14.923 9.81067 14.9339 9.81067C14.9448 9.80577 14.9557 9.79978 14.9719 9.79978H15.1952C15.2712 9.79978 15.3422 9.78889 15.402 9.77255C15.4618 9.75676 15.511 9.72901 15.549 9.69634C15.587 9.66369 15.6197 9.62556 15.6415 9.57711C15.6633 9.53355 15.6742 9.47857 15.6742 9.42412C15.6742 9.38057 15.6633 9.337 15.6524 9.2989C15.6362 9.26133 15.6144 9.22812 15.587 9.20089C15.5599 9.16879 15.5217 9.14699 15.4783 9.13013C15.4347 9.11379 15.3802 9.10834 15.3204 9.10834C15.2494 9.10834 15.1843 9.11924 15.1242 9.13556C15.0644 9.15734 15.0099 9.17912 14.961 9.20634C14.9174 9.22811 14.8738 9.24989 14.8411 9.27167C14.8087 9.29344 14.7813 9.3049 14.7651 9.3049C14.7542 9.3049 14.7486 9.3049 14.7377 9.2989C14.7324 9.29345 14.7268 9.28309 14.7215 9.27167C14.7159 9.25534 14.7106 9.23901 14.705 9.21234V9.03756C14.705 9.01579 14.7106 8.99401 14.7106 8.98313C14.7159 8.96679 14.7215 8.95591 14.7268 8.94502C14.7324 8.93413 14.7433 8.92324 14.7542 8.90691C14.7704 8.89657 14.7978 8.87968 14.8358 8.85301C14.8794 8.82523 14.9283 8.80401 14.9937 8.78223C15.0535 8.75446 15.1242 8.73867 15.2061 8.7218C15.2877 8.70002 15.3749 8.69457 15.4674 8.69457C15.5926 8.69457 15.7013 8.71092 15.7994 8.73866C15.8919 8.76535 15.9735 8.8089 16.039 8.86334C16.1044 8.91833 16.1533 8.98314 16.186 9.06478C16.2186 9.14699 16.2349 9.23355 16.2349 9.33156C16.2349 9.41323 16.2296 9.48455 16.2078 9.54933C16.186 9.62065 16.1589 9.68001 16.1206 9.729C16.0825 9.78345 16.0336 9.82754 15.9791 9.86511C15.9193 9.90323 15.8539 9.93044 15.7777 9.94677V9.95221C15.8702 9.96363 15.9464 9.98543 16.0228 10.023C16.0935 10.0557 16.1533 10.0997 16.2022 10.1536C16.2514 10.2081 16.2894 10.268 16.3168 10.3333C16.3383 10.3986 16.3548 10.4694 16.3548 10.5457C16.3548 10.6763 16.3276 10.7852 16.2785 10.8832C16.2296 10.9866 16.1641 11.0683 16.077 11.1336ZM16.3657 21.1899C16.3875 21.1899 16.4093 21.2056 16.4202 21.2389C16.4364 21.2655 16.4473 21.32 16.4473 21.3967C16.4473 21.4621 16.4364 21.516 16.4255 21.5486C16.4093 21.5867 16.3928 21.6031 16.3657 21.6031H16.1424V22.0658C16.1424 22.0773 16.137 22.0876 16.1261 22.0991C16.1206 22.1094 16.1044 22.1148 16.0879 22.1257C16.0661 22.1312 16.0445 22.1366 16.0119 22.1366C15.9792 22.1426 15.9355 22.1426 15.8867 22.1426C15.843 22.1426 15.7994 22.1426 15.7668 22.1366C15.734 22.1366 15.7123 22.1312 15.6904 22.1257C15.6742 22.1148 15.6578 22.1094 15.6524 22.0991C15.6471 22.0876 15.6415 22.0773 15.6415 22.0658V21.6031H14.6617C14.6452 21.6031 14.629 21.5982 14.6125 21.5982C14.6016 21.5922 14.5853 21.5813 14.5798 21.565C14.5689 21.5486 14.5636 21.5214 14.5582 21.4942C14.5527 21.4621 14.5473 21.4185 14.5473 21.369C14.5473 21.326 14.5527 21.2928 14.5527 21.2606C14.5527 21.2274 14.5582 21.2002 14.5636 21.1784C14.5689 21.1512 14.5745 21.1294 14.5798 21.1027C14.5907 21.0804 14.6016 21.0586 14.6125 21.032L15.4073 19.6322C15.4129 19.6214 15.4238 19.6105 15.4401 19.6056C15.4565 19.5941 15.4783 19.5887 15.5054 19.5832C15.5381 19.5778 15.5708 19.5723 15.6144 19.5669H15.9464C15.9954 19.5723 16.028 19.5778 16.0608 19.5832C16.0879 19.5941 16.1097 19.5996 16.1206 19.6105C16.1315 19.6213 16.1424 19.6322 16.1424 19.6491V21.1899H16.3657ZM9.23357 11.297C9.22263 11.297 9.21174 11.2915 9.20646 11.2861C9.19552 11.2806 9.18463 11.2697 9.17908 11.254C9.17374 11.2371 9.16813 11.2153 9.16285 11.1935C9.15724 11.1669 9.15724 11.1336 9.15724 11.0961C9.15724 11.0574 9.15724 11.0248 9.16285 11.003C9.16285 10.9757 9.16813 10.954 9.17908 10.9382C9.18463 10.9213 9.18996 10.9104 9.20085 10.905C9.21174 10.8995 9.22263 10.8946 9.23357 10.8946H9.70728V9.23355L9.29896 9.45679C9.26624 9.47311 9.24446 9.48455 9.22263 9.48455C9.20646 9.48945 9.18996 9.48455 9.17908 9.4731C9.16813 9.46277 9.16285 9.441 9.15724 9.41322C9.15196 9.386 9.15196 9.34844 9.15196 9.2989V9.22269C9.15196 9.20089 9.15724 9.18457 9.16285 9.16879C9.16813 9.1519 9.17374 9.14101 9.18463 9.13013C9.19552 9.12523 9.20646 9.11378 9.22263 9.10289L9.77267 8.74902C9.778 8.74357 9.78356 8.73866 9.79445 8.73268C9.80512 8.73268 9.81601 8.72723 9.8325 8.72723C9.84867 8.72723 9.8705 8.7218 9.89789 8.7218H9.99572C10.0449 8.7218 10.0882 8.72179 10.1156 8.72723C10.1483 8.72723 10.1701 8.73268 10.1863 8.73268C10.2028 8.73866 10.2134 8.74358 10.219 8.75447C10.2243 8.76047 10.2243 8.7708 10.2243 8.78223V10.8946H10.6435C10.6544 10.8946 10.6653 10.8995 10.6763 10.905C10.6872 10.9104 10.6927 10.9213 10.7036 10.9382C10.7089 10.954 10.7145 10.9757 10.7198 11.003V11.0961C10.7198 11.1336 10.7198 11.1669 10.7145 11.1935C10.7145 11.2153 10.7089 11.2371 10.698 11.254C10.6927 11.2697 10.6818 11.2806 10.6763 11.2861C10.6653 11.2915 10.6544 11.297 10.6435 11.297H9.23357ZM10.5947 19.9371C10.6273 20.0188 10.6435 20.1059 10.6435 20.1984C10.6435 20.2861 10.6327 20.3672 10.6218 20.444C10.6055 20.5251 10.5728 20.6122 10.5183 20.7048C10.4694 20.7973 10.3987 20.9008 10.3115 21.0151C10.219 21.1245 10.0991 21.2546 9.94678 21.4071L9.64745 21.7125H10.6544C10.6709 21.7125 10.6818 21.7125 10.6927 21.7228C10.7036 21.7283 10.7145 21.7446 10.7198 21.761C10.7308 21.7773 10.7363 21.7991 10.7417 21.8269C10.7417 21.8535 10.7472 21.8808 10.7472 21.9194C10.7472 21.957 10.7417 21.9896 10.7417 22.0169C10.7363 22.0441 10.7308 22.0659 10.7254 22.0822C10.7198 22.0991 10.7089 22.1148 10.698 22.1208C10.6872 22.1257 10.6763 22.1312 10.6653 22.1312H9.19552C9.16813 22.1312 9.14102 22.1312 9.11924 22.1257C9.09746 22.1208 9.08124 22.1094 9.07035 22.0931C9.05385 22.0773 9.04852 22.0555 9.04297 22.0277C9.03763 21.9951 9.03202 21.963 9.03202 21.9134C9.03202 21.8704 9.03202 21.8317 9.03763 21.8051C9.04297 21.7719 9.04852 21.7446 9.05941 21.7174C9.07035 21.6956 9.08124 21.6739 9.09746 21.6472C9.11924 21.6249 9.13547 21.5982 9.16285 21.5704L9.60918 21.0968C9.69639 21.0042 9.76706 20.9225 9.82156 20.8463C9.87606 20.7701 9.91411 20.6993 9.94678 20.6394C9.97389 20.5801 9.99572 20.5197 10.0066 20.4658C10.0175 20.4162 10.0231 20.3618 10.0231 20.3182C10.0231 20.2747 10.0175 20.2311 10.0066 20.1936C9.99039 20.1549 9.96861 20.1222 9.94123 20.0895C9.91411 20.0623 9.88139 20.0406 9.84339 20.0242C9.79978 20.0079 9.75089 19.997 9.69639 19.997C9.62007 19.997 9.54934 20.0079 9.48956 20.0297C9.42946 20.046 9.38057 20.0678 9.33162 20.095C9.28807 20.1168 9.25001 20.1385 9.21735 20.1603C9.18996 20.1821 9.16285 20.1936 9.14635 20.1936C9.13547 20.1936 9.12458 20.1876 9.11924 20.1821C9.10835 20.1718 9.10302 20.1603 9.09746 20.1386C9.09213 20.1222 9.08652 20.101 9.08652 20.0678C9.08124 20.0356 9.08124 19.997 9.08124 19.9534V19.8778C9.08652 19.8555 9.08652 19.8391 9.09213 19.8228C9.09746 19.807 9.10302 19.7956 9.10835 19.7852C9.11391 19.7738 9.12458 19.7575 9.14102 19.7466C9.15724 19.7302 9.18996 19.7085 9.23357 19.6812C9.27713 19.6595 9.33162 19.6377 9.39679 19.6105C9.46218 19.5887 9.5329 19.5723 9.60918 19.5566C9.68545 19.5397 9.76706 19.5288 9.84867 19.5288C9.98478 19.5288 10.0991 19.5451 10.1972 19.5832C10.3006 19.6159 10.3822 19.6594 10.4476 19.7193C10.513 19.7792 10.5619 19.85 10.5947 19.9371ZM21.0968 7.84526C19.8609 7.84526 18.8645 8.84157 18.8645 10.078C18.8645 11.0792 19.5289 11.9285 20.438 12.2067V14.8418H16.1642V12.2067C17.0734 11.9231 17.7321 11.0792 17.7321 10.078C17.7321 8.84157 16.736 7.84526 15.5054 7.84526C14.2696 7.84526 13.2732 8.84157 13.2732 10.078C13.2732 11.0792 13.9319 11.9285 14.8411 12.2067V14.8418H10.5728V12.2067C11.4767 11.9285 12.1407 11.0792 12.1407 10.078C12.1407 8.84157 11.1391 7.84526 9.90878 7.84526C8.6782 7.84526 7.68188 8.84157 7.68188 10.078C7.68188 11.0792 8.34059 11.9285 9.25001 12.2067V18.7992C8.34059 19.0769 7.68188 19.9317 7.68188 20.928C7.68188 22.1638 8.6782 23.1602 9.90878 23.1602C11.1391 23.1602 12.1407 22.1638 12.1407 20.928C12.1407 19.9317 11.4767 19.0769 10.5728 18.7992V16.1642H14.8411V18.7992C13.9319 19.0769 13.2732 19.9317 13.2732 20.928C13.2732 22.1638 14.2696 23.1602 15.5054 23.1602C16.736 23.1602 17.7321 22.1638 17.7321 20.928C17.7321 19.9317 17.0734 19.0829 16.1642 18.7992V16.1642H21.7611V12.2067C22.6647 11.9285 23.329 11.0792 23.329 10.078C23.329 8.84157 22.3271 7.84526 21.0968 7.84526Z" fill="white"/>
<path d="M21.6032 20.3183C21.5814 20.3733 21.5487 20.4163 21.5104 20.4544C21.4671 20.4925 21.4126 20.5197 21.3472 20.5415C21.2818 20.5633 21.2058 20.5742 21.1186 20.5742H20.8083V19.7248H21.0859C21.1513 19.7248 21.2058 19.7303 21.2438 19.7303C21.2874 19.7357 21.3201 19.7417 21.3528 19.7521C21.4506 19.7793 21.5269 19.8288 21.5705 19.8936C21.6141 19.9649 21.6359 20.0461 21.6359 20.1441C21.6359 20.2094 21.625 20.2693 21.6032 20.3183ZM22.409 22.1095C22.4034 22.0822 22.3871 22.0387 22.3654 21.9788L22.1094 21.3908C22.0823 21.32 22.0495 21.2547 22.0224 21.2003C21.9897 21.1464 21.957 21.0968 21.9243 21.0538C21.8863 21.0043 21.8536 20.9716 21.81 20.9389C21.772 20.9063 21.7284 20.8845 21.6848 20.8627C21.7773 20.8306 21.8589 20.7919 21.9352 20.7429C22.0059 20.6994 22.0658 20.6395 22.1149 20.5742C22.1639 20.5094 22.2019 20.4381 22.2293 20.3564C22.251 20.2747 22.2673 20.1822 22.2673 20.0842C22.2673 19.9649 22.251 19.8555 22.2128 19.7684C22.1748 19.6759 22.1258 19.5942 22.0604 19.5289C21.9897 19.4635 21.9081 19.4091 21.8153 19.3655C21.7175 19.322 21.6085 19.2947 21.4889 19.2784C21.4506 19.2729 21.4017 19.2675 21.3528 19.2675C21.2983 19.2626 21.2382 19.2626 21.1566 19.2626H20.3835C20.3346 19.2626 20.291 19.2784 20.253 19.3056C20.2203 19.3383 20.2039 19.3873 20.2039 19.4526V22.1693C20.2039 22.1857 20.2094 22.1966 20.2147 22.2075C20.2256 22.2238 20.2421 22.2292 20.2639 22.2401C20.291 22.2456 20.3181 22.251 20.3617 22.257C20.4 22.2619 20.449 22.2673 20.5035 22.2673C20.5632 22.2673 20.6177 22.2619 20.6557 22.257C20.6938 22.251 20.7212 22.2456 20.7483 22.2401C20.7701 22.2292 20.7866 22.2238 20.7975 22.2075C20.8083 22.1966 20.8083 22.1857 20.8083 22.1693V21.032H20.9987C21.0641 21.032 21.1239 21.0369 21.1731 21.0587C21.222 21.0805 21.2656 21.1077 21.3036 21.1464C21.3419 21.1899 21.3743 21.2389 21.4017 21.2928C21.4344 21.3527 21.4671 21.4186 21.4998 21.4942L21.7664 22.1639C21.772 22.1802 21.7827 22.1966 21.7882 22.2134C21.7991 22.2238 21.8153 22.2352 21.8372 22.2456C21.8589 22.251 21.8917 22.257 21.9297 22.2619C21.9679 22.2619 22.0168 22.2673 22.0823 22.2673C22.1585 22.2673 22.2236 22.2619 22.2673 22.2619C22.3109 22.257 22.3435 22.251 22.3654 22.2456C22.3925 22.2352 22.4034 22.2238 22.4143 22.2134C22.4199 22.202 22.4199 22.1917 22.4199 22.1748C22.4199 22.1585 22.4143 22.1367 22.409 22.1095Z" fill="white"/>
</svg>
