<svg width="196" height="48" viewBox="0 0 196 48" fill="none" xmlns="http://www.w3.org/2000/svg">
<g clip-path="url(#clip0_1482_3043)">
<path d="M80.2242 38.1398C79.3595 41.1333 76.6095 39.2712 77.198 35.2238C78.358 27.2561 84.9838 16.0837 84.881 15.9867C84.545 15.6678 74.5636 26.2044 71.3298 32.2432C69.7397 35.2152 67.2551 33.9092 67.4734 31.1462C67.7623 27.5018 68.8024 22.5622 70.6215 17.0104C67.8971 20.3682 63.5313 27.6678 62.2729 30.2691C60.9097 33.088 58.8894 30.1419 60.5223 26.6613C64.1262 18.9717 68.7895 13.3984 71.2592 11.4781C74.2083 9.18717 75.4945 10.4113 75.3575 12.1117C75.1992 14.0729 74.1676 14.6721 72.0318 24.6354C77.4655 17.0363 81.9812 13.2949 85.9811 10.8423C89.9809 8.3876 93.5271 9.69364 91.5261 13.0492C86.2657 21.8639 83.3573 27.2992 80.2242 38.1398V38.1398ZM20.53 21.7669C20.5621 20.9135 20.0656 20.4113 18.0989 20.4587C16.13 20.5083 13.4891 20.9867 11.1585 21.4803C12.4575 19.3962 13.3093 17.6829 14.8758 15.3488C17.3841 14.3574 25.4416 12.6678 34.0341 12.1225C36.9875 12.0104 37.454 9.45657 33.7302 9.06433C25.4437 8.18933 15.2011 10.4113 8.67166 12.3725C5.04203 13.463 2.91476 18.06 9.0205 16.4609C5.47434 23.0622 0.898776 32.1635 0.0598524 36.7173C-0.36603 39.0298 1.56007 39.9415 2.5381 38.3941C2.86768 37.8747 6.52513 30.879 8.2522 27.6979C9.17887 25.9911 9.23451 26.0018 10.953 25.4673C14.0583 24.4997 15.276 24.213 18.3107 23.3747C19.3786 23.0794 20.4851 22.879 20.5279 21.7669H20.53ZM31.9818 16.5406C33.0433 16.4479 33.5997 15.601 34.6248 15.5061C37.1608 15.2712 39.0484 18.1527 38.4449 22.4911C37.5246 29.0945 30.4644 37.5773 24.0698 37.5148C19.766 37.4738 17.8313 34.3467 18.3193 30.907C19.2823 24.1311 25.1912 17.1376 31.9818 16.5406ZM33.8822 19.1311C26.5095 20.226 20.4294 32.5514 22.8863 33.6656C25.5379 34.8682 34.9394 27.6074 33.8822 19.1311V19.1311ZM114.136 8.89622C113.383 8.58157 112.521 8.82941 111.718 10.1807C98.8174 31.9178 93.5035 35.4178 92.3993 34.2217C91.7422 33.5083 93.0006 30.2648 95.7977 24.4523C98.2246 19.407 101.76 14.435 99.9688 13.1139C98.2418 11.838 95.8769 14.7734 94.0835 17.2583C90.4903 22.2346 84.132 35.4199 89.9274 37.8725C94.6999 39.8919 100.964 33.4975 105.011 27.5342C110.843 18.9479 115.491 9.6376 114.136 8.89622V8.89622ZM112.69 33.7842C114.004 28.8876 118.804 20.2109 124.133 12.7992C126.481 9.53631 122.66 9.65484 120.073 12.9027C117.779 15.7842 107.521 28.7949 106.699 33.9911C106.19 37.213 108.551 39.0945 112.3 38.0471C116.047 36.9997 119.793 34.7842 125.256 34.3122C126.924 34.1678 128.178 32.2626 126.213 31.7842C123.87 31.213 118.068 31.5536 112.688 33.7863L112.69 33.7842ZM58.8123 37.1699C54.6541 35.9609 47.6517 31.6936 43.8316 28.7411C42.7508 31.1527 41.5288 33.6699 40.5743 35.8574C39.2367 38.9264 36.8227 36.1721 38.1881 32.4781C40.4545 26.3553 44.174 19.2475 45.0942 17.5471C44.373 17.7691 44.022 17.9911 43.273 18.2152C40.8504 18.935 40.7862 16.7863 43.5619 14.9135C47.6474 12.157 51.8099 11.004 56.7878 10.9911C62.0546 10.976 63.2167 13.713 62.9856 15.4911C62.4676 19.4803 54.3438 24.3725 49.0342 26.907C50.849 28.6117 56.929 32.9479 61.6458 35.1117C63.8651 36.129 62.0396 38.1117 58.8081 37.1721L58.8123 37.1699ZM45.58 24.8617C51.2941 21.4889 57.6738 17.9264 57.9221 15.7928C58.1403 13.9156 54.1062 14.6742 50.0379 16.1074C48.7153 18.4501 47.4205 21.1742 45.5822 24.8617H45.58ZM144.588 11.8445C143.336 14.601 138.163 22.8488 136.351 36.9027C135.951 40.004 132.779 40.4092 132 37.2087C131.715 36.0406 131.717 34.4781 131.264 31.963C130.876 29.8122 130.202 27.976 129.445 26.6225C128.173 24.351 130.744 24.1161 131.827 25.5557C132.456 26.3898 133.185 27.5169 133.584 28.8919C134.949 22.0471 138.007 15.6656 137.937 15.6139C137.534 15.3208 130.05 22.2432 125.229 27.0061C122.819 29.3854 119.437 29.2367 121.625 26.101C125.188 20.9932 134.936 12.1872 140.712 9.60096C142.938 8.60527 145.562 9.69579 144.586 11.8467L144.588 11.8445ZM189.515 32.8337C184.242 39.7411 172.223 47.9975 160.887 47.9975C150.933 47.9975 144.819 40.8402 144.819 32.2044C144.819 11.0169 183.352 -1.65981 192.948 0.172085C194.893 0.542775 196.19 1.96088 195.976 3.96734C195.067 12.4781 175.281 30.9587 160.091 28.1807C156.761 27.5708 157.658 24.3639 160.797 24.3596C174.515 24.3445 189.162 6.18071 188.317 5.14407C187.598 4.2626 165.85 11.2346 156.874 21.782C148.481 31.6441 155.06 39.7367 163.479 39.6699C168.731 39.629 177.672 37.8208 187.341 30.3661C190.667 27.8014 190.934 30.9717 189.513 32.8337H189.515Z" fill="url(#paint0_linear_1482_3043)"/>
</g>
<defs>
<linearGradient id="paint0_linear_1482_3043" x1="0.427951" y1="46.4803" x2="196.167" y2="9.18447" gradientUnits="userSpaceOnUse">
<stop stop-color="#002E63"/>
<stop offset="1" stop-color="#0000FF"/>
</linearGradient>
<clipPath id="clip0_1482_3043">
<rect width="196" height="48" fill="white"/>
</clipPath>
</defs>
</svg>
