<?xml version="1.0" encoding="UTF-8"?>
<svg id="Layer_1" data-name="Layer 1" xmlns="http://www.w3.org/2000/svg" viewBox="0 0 326.29 77.07">
  <defs>
    <style>
      .cls-1 {
        fill: #fff;
        stroke-width: 0px;
      }
    </style>
  </defs>
  <g>
    <path class="cls-1" d="m29.06,71.96c2.5,0,4.84.05,7.17-.05.38-.02.93-.67,1.05-1.12,2.43-9.46,4.81-18.94,7.2-28.41,1.59-6.31,3.17-12.63,4.75-18.95.1-.4.14-.81.23-1.37-3,.14-5.58,1.05-7.94,2.57-.34.22-.54.77-.66,1.21-1.66,6.07-3.33,12.14-4.89,18.24-.41,1.6-1.15,2.26-2.82,2.2-2.94-.1-5.89-.02-8.84-.03-2.07,0-2.43-.47-1.92-2.47,1.73-6.73,3.48-13.45,5.22-20.17.11-.41.17-.84.3-1.49-.72,0-1.3,0-1.87,0-7.15,0-14.29-.01-21.44.01-1.08,0-1.93-.18-2.34-1.5h27.94c-2.04,7.9-4.07,15.76-6.15,23.81,3.24,0,6.28.04,9.32-.06.34-.01.82-.75.95-1.22,1.67-6.06,3.28-12.15,4.96-18.21.17-.62.58-1.33,1.09-1.68,2.81-1.91,5.97-2.87,9.34-3.09,1.69-.11,2.04.35,1.63,2-3.52,14.06-7.06,28.11-10.59,42.16-.62,2.47-1.28,4.94-1.85,7.42-.3,1.31-.9,1.94-2.35,1.88-2.56-.1-5.13-.01-7.69-.04-1.59-.02-1.94-.47-1.57-2.01,1.09-4.54,2.2-9.07,3.29-13.61.56-2.31-.52-3.69-2.92-3.74-4.34-.1-6.45,1.48-7.49,5.67-.98,3.95-1.97,7.9-2.85,11.87-.3,1.37-.93,1.91-2.34,1.86-2.67-.09-5.35-.03-8.02-.03-1.33,0-1.87-.48-1.52-1.93,3.17-13.02,6.3-26.05,9.44-39.08.11-.46.22-.92.36-1.49.59.12,1.1.22,1.77.36-3.25,13.47-6.48,26.85-9.77,40.48,2.68,0,5.11.04,7.54-.05.32-.01.78-.66.89-1.09,1.02-4,1.95-8.02,2.95-12.02,1.45-5.81,6.44-6.92,10.99-5.96,2.07.44,3.26,2.67,2.77,4.9-1.02,4.66-2.17,9.29-3.33,14.23Z"/>
    <path class="cls-1" d="m155.7,71.98c.53-2.12,1.01-4.07,1.56-6.26h-18.53c2.39-9.71,4.71-19.18,7.08-28.81,2.42,0,4.81,0,7.2,0,3.38,0,6.76-.03,10.15.02.99.02,1.46-.26,1.65-1.28.29-1.59.76-3.15,1.2-4.94-.67-.04-1.23-.1-1.79-.1-7.31,0-14.62,0-21.93,0-2.45,0-3.3.65-3.9,3.03-2.51,10-5.01,20-7.52,30-.12.47-.27.93-.44,1.48-.52-.12-.97-.22-1.6-.35.74-3.07,1.43-6.01,2.16-8.94,1.83-7.37,3.69-14.73,5.52-22.1.93-3.73,2.48-4.98,6.32-4.98,7.75,0,15.49,0,23.24,0,.65,0,1.3,0,2.24,0-.83,3.25-1.59,6.33-2.47,9.37-.08.29-.98.47-1.5.48-5.13.03-10.26.06-15.38-.01-1.31-.02-1.87.32-2.19,1.69-1.84,7.81-3.81,15.59-5.79,23.57h18.55c-.79,3.14-1.45,6.09-2.32,8.98-.14.47-1.21.95-1.86.95-8.34.03-16.69-.02-25.04-.05-5.18-.02-10.36-.06-15.54-.09-1.06,0-1.99-.13-1.92-1.65h42.84Z"/>
    <path class="cls-1" d="m107.36,62.22c4.58.02,8.59-1.32,12.21-3.87,3.38-2.39,5.7-5.45,6.47-9.62.56-3.03,1.59-6,1.88-9.05.35-3.73-1.6-6.54-5.13-7.85-1.76-.65-3.68-1.07-5.55-1.14-4.47-.16-8.94-.07-13.41-.06-2.37,0-3.37.75-3.95,3.05-2.88,11.41-5.74,22.83-8.61,34.25-.33,1.3-.64,2.61-1,4.09,2.58,0,5.03.05,7.47-.05.38-.02.95-.65,1.06-1.1,2.55-9.93,5.07-19.87,7.53-29.82.97-3.92.9-3.95,4.93-3.93,1.47,0,2.95-.03,4.41.15,3.01.36,4.55,2.65,3.86,5.6-.58,2.48-1.18,4.96-1.8,7.43-.71,2.79-3.44,5.21-6.24,5.55-.96.12-1.75-.06-1.88-1.38.51-.11,1.01-.22,1.51-.34,2.71-.66,4.55-2.12,5.1-5.04.39-2.08,1.03-4.1,1.53-6.16.61-2.51-.39-3.92-3-4.05-1.95-.1-3.92-.02-6.03-.02-1.02,4.07-2.03,8.1-3.05,12.13-1.76,7-3.53,13.99-5.28,20.99-.32,1.27-.98,1.96-2.4,1.92-2.45-.07-4.91,0-7.36-.03-1.85-.02-2.42-.76-1.98-2.55,3.19-12.79,6.38-25.57,9.58-38.36.63-2.51,2.47-4.14,5.02-4.14,5.34,0,10.7-.09,16.01.32,4.57.35,8.54,2.31,9.95,7.13.56,1.89.48,4.09.19,6.08-.4,2.72-1.23,5.39-1.97,8.05-1.81,6.5-6.6,10.05-12.54,12.3-1.81.68-3.8.92-5.72,1.24-1.02.17-1.79-.29-1.82-1.72Z"/>
    <path class="cls-1" d="m134.7,22.39h-5.19c1.11-4.03,2.2-7.96,3.41-12.35-.74.65-1.17,1-1.57,1.37-2.24,2.07-4.47,4.16-6.71,6.23-2.16,2-2.83,1.86-4.19-.81-1.1-2.17-2.21-4.34-3.51-6.88-1.24,4.36-2.38,8.37-3.54,12.42h-5.19c1.84-6.56,3.64-12.99,5.48-19.54,1.4,0,2.78-.15,4.1.06.65.1,1.43.74,1.76,1.35,1.49,2.7,2.84,5.47,4.31,8.35,2.61-2.41,5.31-4.5,7.51-7.03,2.41-2.77,5.26-3.14,8.76-2.58-1.8,6.43-3.61,12.87-5.44,19.39Z"/>
    <path class="cls-1" d="m232.64,46.42c.31-1.7.56-3.19.87-4.67.35-1.69-.38-3.01-2.05-3.52-3.34-1.03-7.4,1.34-8.03,4.49-1.1,5.53-2.65,10.96-4.04,16.43-.79,3.12.41,4.67,3.64,4.64,2.69-.02,4.76-1.35,6.17-4.06.44.07.94.15,1.43.23-.41,2.55-2.68,4.85-5.62,5.3-1.6.24-3.4.15-4.94-.33-2.21-.69-3.19-2.92-2.64-5.14,1.48-6,2.96-12.01,4.5-18,1.1-4.28,6.6-6.84,10.62-5.01,2.31,1.05,3.22,2.98,2.66,5.67-.14.69-.28,1.37-.44,2.19h8.62c.26-1.31.6-2.57.76-3.85.65-4.99-2.35-8.91-7.86-10.36-7.3-1.91-16.92,1.57-20.85,8.01-1.45,2.38-2.03,5.33-2.77,8.09-1.29,4.82-2.45,9.68-3.58,14.54-.94,4.02.91,6.92,4.15,8.95,4.38,2.73,9.21,2.59,13.89,1.13,5.54-1.72,10.15-4.77,12.2-10.65.13-.36,1.02-.46,1.56-.68.19.22.38.45.58.67-1.1,1.89-1.9,4.06-3.34,5.63-6.01,6.54-13.48,9.08-22.19,6.98-4.19-1.01-7.43-3.56-8.45-7.99-.39-1.67-.3-3.59.08-5.28,1.35-6.03,2.85-12.04,4.42-18.02,1.74-6.63,6.69-10.13,12.69-12.34,4.29-1.58,8.76-1.71,13.17-.38,4.71,1.42,9.81,6.15,7.73,13.47-.18.62-.38,1.28-.36,1.91.07,1.89-1.01,2.01-2.51,1.97-3.31-.09-6.63-.03-10.08-.03Z"/>
    <path class="cls-1" d="m284.02,71.68c2.62,0,5.11.03,7.59-.04.32,0,.75-.53.9-.91.3-.8.45-1.66.7-2.65.58.15,1.07.27,1.64.41-.05.29-.07.5-.12.69-1.35,4.81-.27,4.33-5.85,4.34-1.53,0-3.05.03-4.58,0-1.8-.04-2.36-.77-1.94-2.46,3.18-12.68,6.36-25.36,9.55-38.04.68-2.68,2.41-4.21,5.08-4.21,5.39.01,10.8.02,16.18.29,3.32.17,6.47,1.16,8.62,3.99,2.09,2.74,2.1,5.86,1.36,9.04-.67,2.85-1.36,5.7-2.11,8.54-1.01,3.81-3.4,6.66-6.54,8.89-.83.59-1.09,1.17-1.01,2.15.28,3.26.44,6.52.7,9.78.12,1.56-.52,2.19-2.07,2.16-2.78-.06-5.56-.08-8.34,0-1.68.06-2.26-.75-2.27-2.25,0-2.39,0-4.78,0-7.39-3.6,0-6.79,0-9.99,0-1.14,0-2.04-.24-2.17-1.73h13.55c.15,3.14.31,6.32.47,9.58h9.1c-.29-3.78-.6-7.47-.82-11.16-.03-.55.19-1.4.59-1.64,4.59-2.87,7.18-6.96,7.98-12.31.31-2.08,1.15-4.09,1.48-6.17.81-5.27-1.74-8.64-7.16-9.57-1.39-.24-2.81-.35-4.22-.37-4.31-.05-8.62-.03-12.92-.02-2.28,0-3.3.8-3.84,2.96-2.72,10.78-5.43,21.57-8.14,32.35-.46,1.83-.88,3.67-1.38,5.74Z"/>
    <path class="cls-1" d="m183.64,64.02c-3.66,0-6.82,0-9.97,0-1.15,0-2.01-.29-2.17-1.74h13.54c.18,3.15.35,6.29.53,9.55h9.05c-.22-3.06-.32-6.1-.69-9.1-.25-2.01-.24-3.49,1.82-4.76,3.25-2.01,5.31-5.08,6.07-8.92.69-3.51,1.63-6.98,2.04-10.52.36-3.15-1.34-5.49-4.29-6.58-1.81-.67-3.78-1.17-5.69-1.24-4.9-.18-9.81-.09-14.72-.07-1.75,0-2.93.86-3.36,2.54-3.19,12.68-6.35,25.36-9.52,38.05-.02.09.05.2.1.39h7.98c.33-1.09.69-2.26,1.08-3.53.56.16,1.05.3,1.51.43.02.21.06.33.03.43-1.53,5.12-.24,4.57-6,4.59-1.58,0-3.16.04-4.74,0-1.54-.05-2.14-.87-1.77-2.38,3.18-12.68,6.36-25.36,9.58-38.03.75-2.96,2.49-4.32,5.52-4.3,5.29.04,10.57.08,15.85.29,2.64.11,5.17.89,7.25,2.65,2.59,2.18,3.53,5.06,2.94,8.34-.58,3.2-1.38,6.36-2.09,9.54-.92,4.13-3.19,7.36-6.61,9.77-.96.68-1.34,1.38-1.23,2.55.28,3.09.51,6.19.66,9.29.11,2.17-.15,2.39-2.26,2.4-2.73.01-5.45.02-8.18,0-1.73-.01-2.21-.48-2.23-2.26-.04-2.39,0-4.77,0-7.35Z"/>
    <path class="cls-1" d="m172.94,9.27c-1.16,4.12-2.29,7.89-3.27,11.7-.31,1.21-.85,1.58-2.02,1.48-1.14-.09-2.28-.02-3.62-.02.9-3.28,1.76-6.45,2.64-9.6.82-2.93,1.74-5.83,2.48-8.77.26-1.04.76-1.14,1.67-1.27,2.8-.41,4.51.66,5.85,3.17,1.78,3.35,3.98,6.47,6.18,9.98,1.3-4.55,2.51-8.8,3.73-13.06h5.18c-1.25,4.51-2.48,8.93-3.72,13.35-.48,1.72-.93,3.46-1.53,5.15-.16.45-.83.71-1.28,1.06-.03.03-.11,0-.16,0-2.85.53-4.61-.63-5.98-3.21-1.77-3.34-3.97-6.46-6.16-9.96Z"/>
    <path class="cls-1" d="m87.1,7.04c-.29,1.15-.54,2.13-.84,3.3h11.22c-.39,1.46-.74,2.76-1.13,4.22-2.97,0-5.95,0-8.94,0q-2.44,0-3.06,2.4c-.09.36-.17.72-.3,1.26h14.6c-.34,1.28-.55,2.41-.96,3.45-.14.35-.77.73-1.18.73-5.34.05-10.68.06-16.03.02-1.79-.01-2.6-1.12-2.13-2.82,1.46-5.28,2.95-10.55,4.49-15.81.12-.41.78-.93,1.19-.93,5.94-.06,11.88-.04,18-.04-.34,1.24-.54,2.42-1.01,3.47-.18.4-.99.7-1.52.71-4.08.06-8.17.03-12.4.03Z"/>
    <path class="cls-1" d="m213.71,3.64c-1.01,3.85-1,3.76-4.94,3.37-2.54-.25-5.11-.21-7.66-.25-.53,0-1.18.02-1.58.3-.6.42-1.03,1.08-1.53,1.64.49.4.94,1.07,1.47,1.16,2.31.37,4.64.56,6.97.83.97.11,1.97.16,2.9.42,3.75,1.04,4.14,2.38,3.52,5.93-.58,3.33-2.95,4.95-6.19,5.34-5.36.64-10.65.18-15.88-1.05-.15-.04-.28-.15-.53-.29.34-1.26.69-2.53,1.02-3.76,3.1.38,6.1.86,9.12,1.09,1.94.14,3.93.06,5.85-.24.68-.11,1.22-1.15,1.82-1.77-.59-.45-1.14-1.2-1.79-1.3-3.12-.48-6.28-.68-9.39-1.17-2.79-.43-4.29-1.81-4.06-3.85.4-3.66,1.7-6.48,5.93-7.11,4.72-.71,9.45-.48,14.14.47.26.05.51.15.82.24Z"/>
    <path class="cls-1" d="m69.41,49.24c-.59.1-1.01.17-1.71.29-.88-6.21-1.75-12.38-2.63-18.58-2.1,0-4.16-.18-6.17.06-1.65.19-2.57,1.58-2.34,3.38.37,2.9.95,5.78,1.48,8.67,1.02,5.55,2.27,11.08,2.99,16.67.28,2.14-.59,4.45-1.04,6.66-.4,1.91-.95,3.78-1.51,5.93,2.67,0,5.21.04,7.73-.05.31-.01.73-.71.86-1.16.79-2.82,1.43-5.68,2.27-8.49.38-1.27.92-2.56,1.66-3.65,6.02-8.89,12.1-17.74,18.16-26.61.29-.43.54-.89.97-1.61-3.75,0-7.21,0-10.68,0-.82,0-1.67.13-2.44-.07-.58-.15-1.05-.71-1.57-1.09.08-.14.17-.29.25-.43h17.69c-.31.51-.54.94-.82,1.35-6.8,9.94-13.69,19.82-20.35,29.85-1.21,1.82-1.56,4.23-2.2,6.39-.53,1.77-.92,3.58-1.34,5.37-.3,1.25-.9,1.99-2.35,1.94-2.56-.08-5.13.01-7.69-.03-1.76-.03-2.2-.68-1.76-2.39.78-2.99,1.5-6,2.33-8.98.73-2.62-.31-5.05-.73-7.52-1.15-6.8-2.54-13.55-3.78-20.33-.51-2.8,1.79-5.58,4.72-5.72,1.9-.09,3.82-.02,5.73-.02.43,0,.86,0,1.44,0,.94,6.72,1.87,13.36,2.83,20.18Z"/>
    <path class="cls-1" d="m157.6,2.83c1.47,6.57,2.91,12.96,4.39,19.6-1.52,0-2.96.04-4.39-.04-.28-.02-.68-.47-.78-.8-.32-1.04-.51-2.11-.8-3.37-3.44,0-6.9-.03-10.36.04-.37,0-.87.49-1.07.87-1.66,3.21-4.34,3.93-7.8,3.1.33-.46.67-.97,1.04-1.44,4.38-5.5,8.72-11.02,13.21-16.43.66-.8,1.95-1.22,3.03-1.47,1.08-.25,2.27-.05,3.54-.05Zm-3.92,4.84c-1.77,2.24-3.29,4.16-4.94,6.26h6.32c-.45-2.03-.88-3.96-1.38-6.26Z"/>
    <path class="cls-1" d="m67.08,2.83c-1.46,5.2-2.86,10.2-4.31,15.38h13.86c-.41,1.48-.76,2.77-1.17,4.23-1.77,0-3.56,0-5.34,0-3.49,0-6.98.01-10.47,0-2.22-.01-2.98-.97-2.41-3.07,1.41-5.13,2.87-10.24,4.27-15.37.24-.88.63-1.25,1.57-1.18,1.25.09,2.5.02,3.99.02Z"/>
    <path class="cls-1" d="m276.65,30.62c-8.72,0-17.12,0-25.51,0-.49,0-1.06.14-1.45-.06-.56-.28-1-.82-1.49-1.24.09-.14.19-.28.28-.42h29.56c0,3.57.09,7.09-.02,10.61-.22,6.87-.54,13.74-.84,20.6-.17,3.81-.39,7.62-.56,11.43-.05,1.06-.51,1.35-1.74.91.58-13.81,1.17-27.72,1.76-41.83Z"/>
    <path class="cls-1" d="m258.41,39.3c.45.21.89.42,1.48.69-4.9,10.62-9.78,21.19-14.75,31.97,2.79,0,5.3.05,7.79-.05.43-.02,1.01-.56,1.22-1.01,1.21-2.49,2.3-5.04,3.5-7.54.2-.41.7-.94,1.07-.95,2.49-.08,4.99-.04,7.41-.04v10.18h-1.74v-8.47c-1.56,0-3.17-.06-4.76.05-.31.02-.66.63-.86,1.03-1.12,2.36-2.12,4.78-3.33,7.09-.33.63-1.24,1.32-1.92,1.35-2.83.15-5.67.1-8.5.04-1.6-.03-2.16-.95-1.5-2.39,4.81-10.47,9.64-20.94,14.48-31.4.09-.19.25-.35.4-.56Z"/>
    <path class="cls-1" d="m182.51,46.65c-1.34.21-1.76-.3-1.45-1.46.62-2.36,1.19-4.73,1.87-7.07.12-.41.72-.97,1.1-.98,2.5-.05,5.02-.07,7.52.1,2.99.21,4.43,2.17,3.81,5.12-.6,2.87-1.26,5.72-2.04,8.55-.72,2.62-3.77,4.86-6.69,4.95-3.05.09-6.11.09-9.16,0-.63-.02-1.24-.6-1.86-.93.07-.22.14-.45.21-.67,2.85,0,5.7.03,8.55-.02,1.08-.02,2.21-.04,3.22-.35,2.2-.67,3.79-1.98,4.29-4.44.47-2.34,1.17-4.63,1.74-6.94.56-2.27-.25-3.47-2.61-3.64-1.84-.13-3.71-.12-5.56,0-.43.03-1.06.63-1.2,1.09-.66,2.22-1.19,4.49-1.75,6.68Z"/>
    <path class="cls-1" d="m293.75,54.27c3.05,0,6.09,0,9.14,0,3.94-.01,6.17-1.81,7.06-5.61.48-2.06,1-4.11,1.5-6.16.54-2.23-.17-3.39-2.46-3.59-1.95-.17-3.92-.13-5.88-.03-.37.02-.91.66-1.04,1.1-.63,2.18-1.14,4.4-1.7,6.61-1.35.31-1.79-.19-1.48-1.42.61-2.36,1.19-4.73,1.88-7.07.12-.41.73-.95,1.13-.96,2.5-.05,5.02-.07,7.51.11,2.95.21,4.38,2.1,3.8,5.03-.58,2.92-1.28,5.83-2.09,8.69-.72,2.57-3.72,4.78-6.57,4.88-3.1.11-6.21.1-9.31,0-.61-.02-1.21-.62-1.81-.96.11-.21.21-.42.32-.63Z"/>
    <path class="cls-1" d="m267.35,55.81h-6.73c2.61-6.08,5.18-12.08,7.76-18.08.11.02.22.03.33.05-.45,5.95-.89,11.9-1.35,18.03Zm-1.65-1.6c.16-2.04.31-3.95.46-5.86l-.4-.09c-.82,1.93-1.64,3.87-2.52,5.95h2.46Z"/>
    <path class="cls-1" d="m153.75,47.91c-2.16-.22-4.24-.4-6.3-.68-.21-.03-.35-.59-.63-1.1h9.2c-.8,3.2-1.59,6.39-2.45,9.8-2.09-.66-4.61,1.08-6.15-1.89,1.22,0,2.46.09,3.67-.04.51-.06,1.24-.52,1.38-.95.54-1.7.88-3.46,1.28-5.15Z"/>
  </g>
  <g>
    <path class="cls-1" d="m223.75,9.01c2.72,0,4.84,1.3,3.84,4.27l-1.46,4.29c-.99,2.94-3.95,4.2-6.68,4.2h-5.08l4.29-12.75h5.08Zm-3.17,9.72c.94,0,1.88-.49,2.1-1.17l1.46-4.29c.23-.7-.34-1.26-1.28-1.26h-1.74l-2.28,6.72h1.74Z"/>
    <path class="cls-1" d="m237.73,21.76h-3.68l-.04-2.56h-3.62l-1.69,2.56h-3.68l9.03-12.75h3.13l.56,12.75Zm-3.57-5.42l.3-3.73h-.13l-2.2,3.73h2.03Z"/>
    <path class="cls-1" d="m240.09,21.76l1.69-5.02-2.14-7.72h3.99l.92,4.48,3.99-4.48h4.03l-7.36,7.72-1.69,5.02h-3.43Z"/>
    <path class="cls-1" d="m258.73,11.94l-3.28,9.81h-3.47l3.28-9.81h-3.66l1.01-2.95h10.8l-1.01,2.95h-3.66Z"/>
    <path class="cls-1" d="m262.88,13.2c1.01-2.93,4.27-4.38,7.09-4.38s5.15,1.46,4.16,4.38l-1.49,4.36c-.99,2.92-4.16,4.38-7.11,4.38s-5.14-1.46-4.15-4.38l1.49-4.36Zm1.94,4.36c-.31.92.62,1.39,1.66,1.39,1.11,0,2.41-.47,2.75-1.48l1.47-4.27c.33-.95-.53-1.44-1.65-1.44s-2.41.49-2.74,1.44l-1.49,4.36Z"/>
    <path class="cls-1" d="m277.34,9.01h3.26l1.45,5.44.29,2.56.08-.02.37-2.2,1.95-5.78h3.41l-4.29,12.75h-3.47l-1.38-5.02-.32-2.56-.08.02-.42,2.47-1.71,5.1h-3.43l4.29-12.75Z"/>
    <path class="cls-1" d="m297.52,21.76h-3.68l-.04-2.56h-3.62l-1.69,2.56h-3.68l9.03-12.75h3.13l.56,12.75Zm-3.57-5.42l.3-3.73h-.13l-2.2,3.73h2.03Z"/>
  </g>
</svg>