<svg width="322" height="72" viewBox="0 0 322 72" fill="none" xmlns="http://www.w3.org/2000/svg">
<path d="M26.8 69.4449C29.3 69.4449 31.64 69.4949 33.97 69.3949C34.35 69.3749 34.9 68.7249 35.02 68.2749C37.45 58.8149 39.83 49.3349 42.22 39.8649C43.81 33.5549 45.39 27.2349 46.97 20.9149C47.07 20.5149 47.11 20.1049 47.2 19.5449C44.2 19.6849 41.62 20.5949 39.26 22.1149C38.92 22.3349 38.72 22.8849 38.6 23.3249C36.94 29.3949 35.27 35.4649 33.71 41.5649C33.3 43.1649 32.56 43.8249 30.89 43.7649C27.95 43.6649 25 43.7449 22.05 43.7349C19.98 43.7349 19.62 43.2649 20.13 41.2649C21.86 34.5349 23.61 27.8149 25.35 21.0949C25.46 20.6849 25.52 20.2549 25.65 19.6049C24.93 19.6049 24.35 19.6049 23.78 19.6049C16.63 19.6049 9.49 19.5949 2.34 19.6149C1.26 19.6149 0.41 19.4349 0 18.1149H27.94C25.9 26.0149 23.87 33.8749 21.79 41.9249C25.03 41.9249 28.07 41.9649 31.11 41.8649C31.45 41.8549 31.93 41.1149 32.06 40.6449C33.73 34.5849 35.34 28.4949 37.02 22.4349C37.19 21.8149 37.6 21.1049 38.11 20.7549C40.92 18.8449 44.08 17.8849 47.45 17.6649C49.14 17.5549 49.49 18.0149 49.08 19.6649C45.56 33.7249 42.02 47.7749 38.49 61.8249C37.87 64.2949 37.21 66.7649 36.64 69.2449C36.34 70.5549 35.74 71.1849 34.29 71.1249C31.73 71.0249 29.16 71.1149 26.6 71.0849C25.01 71.0649 24.66 70.6149 25.03 69.0749C26.12 64.5349 27.23 60.0049 28.32 55.4649C28.88 53.1549 27.8 51.7749 25.4 51.7249C21.06 51.6249 18.95 53.2049 17.91 57.3949C16.93 61.3449 15.94 65.2949 15.06 69.2649C14.76 70.6349 14.13 71.1749 12.72 71.1249C10.05 71.0349 7.37 71.0949 4.7 71.0949C3.37 71.0949 2.83 70.6149 3.18 69.1649C6.35 56.1449 9.48 43.1149 12.62 30.0849C12.73 29.6249 12.84 29.1649 12.98 28.5949C13.57 28.7149 14.08 28.8149 14.75 28.9549C11.5 42.4249 8.27 55.8049 4.98 69.4349C7.66 69.4349 10.09 69.4749 12.52 69.3849C12.84 69.3749 13.3 68.7249 13.41 68.2949C14.43 64.2949 15.36 60.2749 16.36 56.2749C17.81 50.4649 22.8 49.3549 27.35 50.3149C29.42 50.7549 30.61 52.9849 30.12 55.2149C29.1 59.8749 27.95 64.5049 26.79 69.4449H26.8Z" fill="white"/>
<path d="M153.44 69.4649C153.97 67.3449 154.45 65.3949 155 63.2049H136.47C138.86 53.4949 141.18 44.0249 143.55 34.3949C145.97 34.3949 148.36 34.3949 150.75 34.3949C154.13 34.3949 157.51 34.3649 160.9 34.4149C161.89 34.4349 162.36 34.1549 162.55 33.1349C162.84 31.5449 163.31 29.9849 163.75 28.1949C163.08 28.1549 162.52 28.0949 161.96 28.0949C154.65 28.0949 147.34 28.0949 140.03 28.0949C137.58 28.0949 136.73 28.7449 136.13 31.1249C133.62 41.1249 131.12 51.1249 128.61 61.1249C128.49 61.5949 128.34 62.0549 128.17 62.6049C127.65 62.4849 127.2 62.3849 126.57 62.2549C127.31 59.1849 128 56.2449 128.73 53.3149C130.56 45.9449 132.42 38.5849 134.25 31.2149C135.18 27.4849 136.73 26.2349 140.57 26.2349C148.32 26.2349 156.06 26.2349 163.81 26.2349C164.46 26.2349 165.11 26.2349 166.05 26.2349C165.22 29.4849 164.46 32.5649 163.58 35.6049C163.5 35.8949 162.6 36.0749 162.08 36.0849C156.95 36.1149 151.82 36.1449 146.7 36.0749C145.39 36.0549 144.83 36.3949 144.51 37.7649C142.67 45.5749 140.7 53.3549 138.72 61.3349H157.27C156.48 64.4749 155.82 67.4249 154.95 70.3149C154.81 70.7849 153.74 71.2649 153.09 71.2649C144.75 71.2949 136.4 71.2449 128.05 71.2149C122.87 71.1949 117.69 71.1549 112.51 71.1249C111.45 71.1249 110.52 70.9949 110.59 69.4749H153.43L153.44 69.4649Z" fill="white"/>
<path d="M105.1 59.7049C109.68 59.7249 113.69 58.3849 117.31 55.8349C120.69 53.4449 123.01 50.3849 123.78 46.2149C124.34 43.1849 125.37 40.2149 125.66 37.1649C126.01 33.4349 124.06 30.6249 120.53 29.3149C118.77 28.6649 116.85 28.2449 114.98 28.1749C110.51 28.0149 106.04 28.1049 101.57 28.1149C99.2 28.1149 98.2 28.8649 97.62 31.1649C94.74 42.5749 91.88 53.9949 89.01 65.4149C88.68 66.7149 88.37 68.0249 88.01 69.5049C90.59 69.5049 93.04 69.5549 95.48 69.4549C95.86 69.4349 96.43 68.8049 96.54 68.3549C99.09 58.4249 101.61 48.4849 104.07 38.5349C105.04 34.6149 104.97 34.5849 109 34.6049C110.47 34.6049 111.95 34.5749 113.41 34.7549C116.42 35.1149 117.96 37.4049 117.27 40.3549C116.69 42.8349 116.09 45.3149 115.47 47.7849C114.76 50.5749 112.03 52.9949 109.23 53.3349C108.27 53.4549 107.48 53.2749 107.35 51.9549C107.86 51.8449 108.36 51.7349 108.86 51.6149C111.57 50.9549 113.41 49.4949 113.96 46.5749C114.35 44.4949 114.99 42.4749 115.49 40.4149C116.1 37.9049 115.1 36.4949 112.49 36.3649C110.54 36.2649 108.57 36.3449 106.46 36.3449C105.44 40.4149 104.43 44.4449 103.41 48.4749C101.65 55.4749 99.88 62.4649 98.13 69.4649C97.81 70.7349 97.15 71.4249 95.73 71.3849C93.28 71.3149 90.82 71.3849 88.37 71.3549C86.52 71.3349 85.95 70.5949 86.39 68.8049C89.58 56.0149 92.77 43.2349 95.97 30.4449C96.6 27.9349 98.44 26.3049 100.99 26.3049C106.33 26.3049 111.69 26.2149 117 26.6249C121.57 26.9749 125.54 28.9349 126.95 33.7549C127.51 35.6449 127.43 37.8449 127.14 39.8349C126.74 42.5549 125.91 45.2249 125.17 47.8849C123.36 54.3849 118.57 57.9349 112.63 60.1849C110.82 60.8649 108.83 61.1049 106.91 61.4249C105.89 61.5949 105.12 61.1349 105.09 59.7049H105.1Z" fill="white"/>
<path d="M132.44 19.8749H127.25C128.36 15.8449 129.45 11.9149 130.66 7.52491C129.92 8.17491 129.49 8.52491 129.09 8.89491C126.85 10.9649 124.62 13.0549 122.38 15.1249C120.22 17.1249 119.55 16.9849 118.19 14.3149C117.09 12.1449 115.98 9.97491 114.68 7.43491C113.44 11.7949 112.3 15.8049 111.14 19.8549H105.95C107.79 13.2949 109.59 6.86491 111.43 0.31491C112.83 0.31491 114.21 0.164911 115.53 0.374911C116.18 0.474911 116.96 1.11491 117.29 1.72491C118.78 4.42491 120.13 7.19491 121.6 10.0749C124.21 7.66491 126.91 5.57491 129.11 3.04491C131.52 0.27491 134.37 -0.0950896 137.87 0.46491C136.07 6.89491 134.26 13.3349 132.43 19.8549L132.44 19.8749Z" fill="white"/>
<path d="M230.38 43.9049C230.69 42.2049 230.94 40.7149 231.25 39.2349C231.6 37.5449 230.87 36.2249 229.2 35.7149C225.86 34.6849 221.8 37.0549 221.17 40.2049C220.07 45.7349 218.52 51.1649 217.13 56.6349C216.34 59.7549 217.54 61.3049 220.77 61.2749C223.46 61.2549 225.53 59.9249 226.94 57.2149C227.38 57.2849 227.88 57.3649 228.37 57.4449C227.96 59.9949 225.69 62.2949 222.75 62.7449C221.15 62.9849 219.35 62.8949 217.81 62.4149C215.6 61.7249 214.62 59.4949 215.17 57.2749C216.65 51.2749 218.13 45.2649 219.67 39.2749C220.77 34.9949 226.27 32.4349 230.29 34.2649C232.6 35.3149 233.51 37.2449 232.95 39.9349C232.81 40.6249 232.67 41.3049 232.51 42.1249H241.13C241.39 40.8149 241.73 39.5549 241.89 38.2749C242.54 33.2849 239.54 29.3649 234.03 27.9149C226.73 26.0049 217.11 29.4849 213.18 35.9249C211.73 38.3049 211.15 41.2549 210.41 44.0149C209.12 48.8349 207.96 53.6949 206.83 58.5549C205.89 62.5749 207.74 65.4749 210.98 67.5049C215.36 70.2349 220.19 70.0949 224.87 68.6349C230.41 66.9149 235.02 63.8649 237.07 57.9849C237.2 57.6249 238.09 57.5249 238.63 57.3049C238.82 57.5249 239.01 57.7549 239.21 57.9749C238.11 59.8649 237.31 62.0349 235.87 63.6049C229.86 70.1449 222.39 72.6849 213.68 70.5849C209.49 69.5749 206.25 67.0249 205.23 62.5949C204.84 60.9249 204.93 59.0049 205.31 57.3149C206.66 51.2849 208.16 45.2749 209.73 39.2949C211.47 32.6649 216.42 29.1649 222.42 26.9549C226.71 25.3749 231.18 25.2449 235.59 26.5749C240.3 27.9949 245.4 32.7249 243.32 40.0449C243.14 40.6649 242.94 41.3249 242.96 41.9549C243.03 43.8449 241.95 43.9649 240.45 43.9249C237.14 43.8349 233.82 43.8949 230.37 43.8949L230.38 43.9049Z" fill="white"/>
<path d="M281.76 69.1649C284.38 69.1649 286.87 69.1949 289.35 69.1249C289.67 69.1249 290.1 68.5949 290.25 68.2149C290.55 67.4149 290.7 66.5549 290.95 65.5649C291.53 65.7149 292.02 65.8349 292.59 65.9749C292.54 66.2649 292.52 66.4749 292.47 66.6649C291.12 71.4749 292.2 70.9949 286.62 71.0049C285.09 71.0049 283.57 71.0349 282.04 71.0049C280.24 70.9649 279.68 70.2349 280.1 68.5449C283.28 55.8649 286.46 43.1849 289.65 30.5049C290.33 27.8249 292.06 26.2949 294.73 26.2949C300.12 26.3049 305.53 26.3149 310.91 26.5849C314.23 26.7549 317.38 27.7449 319.53 30.5749C321.62 33.3149 321.63 36.4349 320.89 39.6149C320.22 42.4649 319.53 45.3149 318.78 48.1549C317.77 51.9649 315.38 54.8149 312.24 57.0449C311.41 57.6349 311.15 58.2149 311.23 59.1949C311.51 62.4549 311.67 65.7149 311.93 68.9749C312.05 70.5349 311.41 71.1649 309.86 71.1349C307.08 71.0749 304.3 71.0549 301.52 71.1349C299.84 71.1949 299.26 70.3849 299.25 68.8849C299.25 66.4949 299.25 64.1049 299.25 61.4949C295.65 61.4949 292.46 61.4949 289.26 61.4949C288.12 61.4949 287.22 61.2549 287.09 59.7649H300.64C300.79 62.9049 300.95 66.0849 301.11 69.3449H310.21C309.92 65.5649 309.61 61.8749 309.39 58.1849C309.36 57.6349 309.58 56.7849 309.98 56.5449C314.57 53.6749 317.16 49.5849 317.96 44.2349C318.27 42.1549 319.11 40.1449 319.44 38.0649C320.25 32.7949 317.7 29.4249 312.28 28.4949C310.89 28.2549 309.47 28.1449 308.06 28.1249C303.75 28.0749 299.44 28.0949 295.14 28.1049C292.86 28.1049 291.84 28.9049 291.3 31.0649C288.58 41.8449 285.87 52.6349 283.16 63.4149C282.7 65.2449 282.28 67.0849 281.78 69.1549L281.76 69.1649Z" fill="white"/>
<path d="M181.38 61.5049C177.72 61.5049 174.56 61.5049 171.41 61.5049C170.26 61.5049 169.4 61.2149 169.24 59.7649H182.78C182.96 62.9149 183.13 66.0549 183.31 69.3149H192.36C192.14 66.2549 192.04 63.2149 191.67 60.2149C191.42 58.2049 191.43 56.7249 193.49 55.4549C196.74 53.4449 198.8 50.3749 199.56 46.5349C200.25 43.0249 201.19 39.5549 201.6 36.0149C201.96 32.8649 200.26 30.5249 197.31 29.4349C195.5 28.7649 193.53 28.2649 191.62 28.1949C186.72 28.0149 181.81 28.1049 176.9 28.1249C175.15 28.1249 173.97 28.9849 173.54 30.6649C170.35 43.3449 167.19 56.0249 164.02 68.7149C164 68.8049 164.07 68.9149 164.12 69.1049H172.1C172.43 68.0149 172.79 66.8449 173.18 65.5749C173.74 65.7349 174.23 65.8749 174.69 66.0049C174.71 66.2149 174.75 66.3349 174.72 66.4349C173.19 71.5549 174.48 71.0049 168.72 71.0249C167.14 71.0249 165.56 71.0649 163.98 71.0249C162.44 70.9749 161.84 70.1549 162.21 68.6449C165.39 55.9649 168.57 43.2849 171.79 30.6149C172.54 27.6549 174.28 26.2949 177.31 26.3149C182.6 26.3549 187.88 26.3949 193.16 26.6049C195.8 26.7149 198.33 27.4949 200.41 29.2549C203 31.4349 203.94 34.3149 203.35 37.5949C202.77 40.7949 201.97 43.9549 201.26 47.1349C200.34 51.2649 198.07 54.4949 194.65 56.9049C193.69 57.5849 193.31 58.2849 193.42 59.4549C193.7 62.5449 193.93 65.6449 194.08 68.7449C194.19 70.9149 193.93 71.1349 191.82 71.1449C189.09 71.1549 186.37 71.1649 183.64 71.1449C181.91 71.1349 181.43 70.6649 181.41 68.8849C181.37 66.4949 181.41 64.1149 181.41 61.5349L181.38 61.5049Z" fill="white"/>
<path d="M170.68 6.75493C169.52 10.8749 168.39 14.6449 167.41 18.4549C167.1 19.6649 166.56 20.0349 165.39 19.9349C164.25 19.8449 163.11 19.9149 161.77 19.9149C162.67 16.6349 163.53 13.4649 164.41 10.3149C165.23 7.38493 166.15 4.48493 166.89 1.54493C167.15 0.504929 167.65 0.404929 168.56 0.274929C171.36 -0.135071 173.07 0.934929 174.41 3.44493C176.19 6.79493 178.39 9.91493 180.59 13.4249C181.89 8.87493 183.1 4.62493 184.32 0.364929H189.5C188.25 4.87493 187.02 9.29493 185.78 13.7149C185.3 15.4349 184.85 17.1749 184.25 18.8649C184.09 19.3149 183.42 19.5749 182.97 19.9249C182.94 19.9549 182.86 19.9249 182.81 19.9249C179.96 20.4549 178.2 19.2949 176.83 16.7149C175.06 13.3749 172.86 10.2549 170.67 6.75493H170.68Z" fill="white"/>
<path d="M84.84 4.52493C84.55 5.67493 84.3 6.65493 84 7.82493H95.22C94.83 9.28493 94.48 10.5849 94.09 12.0449C91.12 12.0449 88.14 12.0449 85.15 12.0449C83.5233 12.0449 82.5033 12.8449 82.09 14.4449C82 14.8049 81.92 15.1649 81.79 15.7049H96.39C96.05 16.9849 95.84 18.1149 95.43 19.1549C95.29 19.5049 94.66 19.8849 94.25 19.8849C88.91 19.9349 83.57 19.9449 78.22 19.9049C76.43 19.8949 75.62 18.7849 76.09 17.0849C77.55 11.8049 79.04 6.53493 80.58 1.27493C80.7 0.864927 81.36 0.344927 81.77 0.344927C87.71 0.284927 93.65 0.304927 99.77 0.304927C99.43 1.54493 99.23 2.72493 98.76 3.77493C98.58 4.17493 97.77 4.47493 97.24 4.48493C93.16 4.54493 89.07 4.51493 84.84 4.51493V4.52493Z" fill="white"/>
<path d="M211.45 1.12492C210.44 4.97492 210.45 4.88492 206.51 4.49492C203.97 4.24492 201.4 4.28492 198.85 4.24492C198.32 4.24492 197.67 4.26492 197.27 4.54492C196.67 4.96492 196.24 5.62492 195.74 6.18492C196.23 6.58492 196.68 7.25492 197.21 7.34492C199.52 7.71492 201.85 7.90492 204.18 8.17492C205.15 8.28492 206.15 8.33492 207.08 8.59492C210.83 9.63492 211.22 10.9749 210.6 14.5249C210.02 17.8549 207.65 19.4749 204.41 19.8649C199.05 20.5049 193.76 20.0449 188.53 18.8149C188.38 18.7749 188.25 18.6649 188 18.5249C188.34 17.2649 188.69 15.9949 189.02 14.7649C192.12 15.1449 195.12 15.6249 198.14 15.8549C200.08 15.9949 202.07 15.9149 203.99 15.6149C204.67 15.5049 205.21 14.4649 205.81 13.8449C205.22 13.3949 204.67 12.6449 204.02 12.5449C200.9 12.0649 197.74 11.8649 194.63 11.3749C191.84 10.9449 190.34 9.56492 190.57 7.52492C190.97 3.86492 192.27 1.04492 196.5 0.414921C201.22 -0.295079 205.95 -0.0650793 210.64 0.884921C210.9 0.934921 211.15 1.03492 211.46 1.12492H211.45Z" fill="white"/>
<path d="M67.15 46.7249C66.56 46.8249 66.14 46.8949 65.44 47.0149C64.56 40.8049 63.69 34.6349 62.81 28.4349C60.71 28.4349 58.65 28.2549 56.64 28.4949C54.99 28.6849 54.07 30.0749 54.3 31.8749C54.67 34.7749 55.25 37.6549 55.78 40.5449C56.8 46.0949 58.05 51.6249 58.77 57.2149C59.05 59.3549 58.18 61.6649 57.73 63.8749C57.33 65.7849 56.78 67.6549 56.22 69.8049C58.89 69.8049 61.43 69.8449 63.95 69.7549C64.26 69.7449 64.68 69.0449 64.81 68.5949C65.6 65.7749 66.24 62.9149 67.08 60.1049C67.46 58.8349 68 57.5449 68.74 56.4549C74.76 47.5649 80.84 38.7149 86.9 29.8449C87.19 29.4149 87.44 28.9549 87.87 28.2349C84.12 28.2349 80.66 28.2349 77.19 28.2349C76.37 28.2349 75.52 28.3649 74.75 28.1649C74.17 28.0149 73.7 27.4549 73.18 27.0749C73.26 26.9349 73.35 26.7849 73.43 26.6449H91.12C90.81 27.1549 90.58 27.5849 90.3 27.9949C83.5 37.9349 76.61 47.8149 69.95 57.8449C68.74 59.6649 68.39 62.0749 67.75 64.2349C67.22 66.0049 66.83 67.8149 66.41 69.6049C66.11 70.8549 65.51 71.5949 64.06 71.5449C61.5 71.4649 58.93 71.5549 56.37 71.5149C54.61 71.4849 54.17 70.8349 54.61 69.1249C55.39 66.1349 56.11 63.1249 56.94 60.1449C57.67 57.5249 56.63 55.0949 56.21 52.6249C55.06 45.8249 53.67 39.0749 52.43 32.2949C51.92 29.4949 54.22 26.7149 57.15 26.5749C59.05 26.4849 60.97 26.5549 62.88 26.5549C63.31 26.5549 63.74 26.5549 64.32 26.5549C65.26 33.2749 66.19 39.9149 67.15 46.7349V46.7249Z" fill="white"/>
<path d="M155.34 0.314916C156.81 6.88492 158.25 13.2749 159.73 19.9149C158.21 19.9149 156.77 19.9549 155.34 19.8749C155.06 19.8549 154.66 19.4049 154.56 19.0749C154.24 18.0349 154.05 16.9649 153.76 15.7049C150.32 15.7049 146.86 15.6749 143.4 15.7449C143.03 15.7449 142.53 16.2349 142.33 16.6149C140.67 19.8249 137.99 20.5449 134.53 19.7149C134.86 19.2549 135.2 18.7449 135.57 18.2749C139.95 12.7749 144.29 7.25492 148.78 1.84492C149.44 1.04492 150.73 0.624916 151.81 0.374916C152.89 0.124916 154.08 0.324916 155.35 0.324916L155.34 0.314916ZM151.42 5.15492C149.65 7.39492 148.13 9.31492 146.48 11.4149H152.8C152.35 9.38492 151.92 7.45492 151.42 5.15492Z" fill="white"/>
<path d="M64.8201 0.314918C63.3601 5.51492 61.96 10.5149 60.51 15.6949H74.37C73.96 17.1749 73.61 18.4649 73.2 19.9249C71.43 19.9249 69.6401 19.9249 67.8601 19.9249C64.3701 19.9249 60.8801 19.9349 57.3901 19.9249C55.1701 19.9149 54.4101 18.9549 54.9801 16.8549C56.3901 11.7249 57.85 6.61492 59.25 1.48492C59.49 0.604918 59.8801 0.234918 60.8201 0.304918C62.0701 0.394918 63.32 0.324918 64.81 0.324918L64.8201 0.314918Z" fill="white"/>
<path d="M274.39 28.1049C265.67 28.1049 257.27 28.1049 248.88 28.1049C248.39 28.1049 247.82 28.2449 247.43 28.0449C246.87 27.7649 246.43 27.2249 245.94 26.8049C246.03 26.6649 246.13 26.5249 246.22 26.3849H275.78C275.78 29.9549 275.87 33.4749 275.76 36.9949C275.54 43.8649 275.22 50.7349 274.92 57.5949C274.75 61.4049 274.53 65.2149 274.36 69.0249C274.31 70.0849 273.85 70.3749 272.62 69.9349C273.2 56.1249 273.79 42.2149 274.38 28.1049H274.39Z" fill="white"/>
<path d="M256.15 36.7849C256.6 36.9949 257.04 37.2049 257.63 37.4749C252.73 48.0949 247.85 58.6649 242.88 69.4449C245.67 69.4449 248.18 69.4949 250.67 69.3949C251.1 69.3749 251.68 68.8349 251.89 68.3849C253.1 65.8949 254.19 63.3449 255.39 60.8449C255.59 60.4349 256.09 59.9049 256.46 59.8949C258.95 59.8149 261.45 59.8549 263.87 59.8549V70.0349H262.13V61.5649C260.57 61.5649 258.96 61.5049 257.37 61.6149C257.06 61.6349 256.71 62.2449 256.51 62.6449C255.39 65.0049 254.39 67.4249 253.18 69.7349C252.85 70.3649 251.94 71.0549 251.26 71.0849C248.43 71.2349 245.59 71.1849 242.76 71.1249C241.16 71.0949 240.6 70.1749 241.26 68.7349C246.07 58.2649 250.9 47.7949 255.74 37.3349C255.83 37.1449 255.99 36.9849 256.14 36.7749L256.15 36.7849Z" fill="white"/>
<path d="M180.25 44.1349C178.91 44.3449 178.49 43.8349 178.8 42.6749C179.42 40.3149 179.99 37.9449 180.67 35.6049C180.79 35.1949 181.39 34.6349 181.77 34.6249C184.27 34.5749 186.79 34.5549 189.29 34.7249C192.28 34.9349 193.72 36.8949 193.1 39.8449C192.5 42.7149 191.84 45.5649 191.06 48.3949C190.34 51.0149 187.29 53.2549 184.37 53.3449C181.32 53.4349 178.26 53.4349 175.21 53.3449C174.58 53.3249 173.97 52.7449 173.35 52.4149C173.42 52.1949 173.49 51.9649 173.56 51.7449C176.41 51.7449 179.26 51.7749 182.11 51.7249C183.19 51.7049 184.32 51.6849 185.33 51.3749C187.53 50.7049 189.12 49.3949 189.62 46.9349C190.09 44.5949 190.79 42.3049 191.36 39.9949C191.92 37.7249 191.11 36.5249 188.75 36.3549C186.91 36.2249 185.04 36.2349 183.19 36.3549C182.76 36.3849 182.13 36.9849 181.99 37.4449C181.33 39.6649 180.8 41.9349 180.24 44.1249L180.25 44.1349Z" fill="white"/>
<path d="M291.49 51.7549C294.54 51.7549 297.58 51.7549 300.63 51.7549C304.57 51.7449 306.8 49.9449 307.69 46.1449C308.17 44.0849 308.69 42.0349 309.19 39.9849C309.73 37.7549 309.02 36.5949 306.73 36.3949C304.78 36.2249 302.81 36.2649 300.85 36.3649C300.48 36.3849 299.94 37.0249 299.81 37.4649C299.18 39.6449 298.67 41.8649 298.11 44.0749C296.76 44.3849 296.32 43.8849 296.63 42.6549C297.24 40.2949 297.82 37.9249 298.51 35.5849C298.63 35.1749 299.24 34.6349 299.64 34.6249C302.14 34.5749 304.66 34.5549 307.15 34.7349C310.1 34.9449 311.53 36.8349 310.95 39.7649C310.37 42.6849 309.67 45.5949 308.86 48.4549C308.14 51.0249 305.14 53.2349 302.29 53.3349C299.19 53.4449 296.08 53.4349 292.98 53.3349C292.37 53.3149 291.77 52.7149 291.17 52.3749C291.28 52.1649 291.38 51.9549 291.49 51.7449V51.7549Z" fill="white"/>
<path d="M265.09 53.2949H258.36C260.97 47.2149 263.54 41.2149 266.12 35.2149C266.23 35.2349 266.34 35.2449 266.45 35.2649C266 41.2149 265.56 47.1649 265.1 53.2949H265.09ZM263.44 51.6949C263.6 49.6549 263.75 47.7449 263.9 45.8349L263.5 45.7449C262.68 47.6749 261.86 49.6149 260.98 51.6949H263.44Z" fill="white"/>
<path d="M151.49 45.3949C149.33 45.1749 147.25 44.9949 145.19 44.7149C144.98 44.6849 144.84 44.1249 144.56 43.6149H153.76C152.96 46.8149 152.17 50.0049 151.31 53.4149C149.22 52.7549 146.7 54.4949 145.16 51.5249C146.38 51.5249 147.62 51.6149 148.83 51.4849C149.34 51.4249 150.07 50.9649 150.21 50.5349C150.75 48.8349 151.09 47.0749 151.49 45.3849V45.3949Z" fill="white"/>
<path d="M221.49 6.49493C224.21 6.49493 226.33 7.79493 225.33 10.7649L223.87 15.0549C222.88 17.9949 219.92 19.2549 217.19 19.2549H212.11L216.4 6.50493H221.48L221.49 6.49493ZM218.32 16.2149C219.26 16.2149 220.2 15.7249 220.42 15.0449L221.88 10.7549C222.11 10.0549 221.54 9.49493 220.6 9.49493H218.86L216.58 16.2149H218.32Z" fill="white"/>
<path d="M235.47 19.2449H231.79L231.75 16.6849H228.13L226.44 19.2449H222.76L231.79 6.49493H234.92L235.48 19.2449H235.47ZM231.9 13.8249L232.2 10.0949H232.07L229.87 13.8249H231.9Z" fill="white"/>
<path d="M237.83 19.2449L239.52 14.2249L237.38 6.50494H241.37L242.29 10.9849L246.28 6.50494H250.31L242.95 14.2249L241.26 19.2449H237.83Z" fill="white"/>
<path d="M256.47 9.42494L253.19 19.2349H249.72L253 9.42494H249.34L250.35 6.47495H261.15L260.14 9.42494H256.48H256.47Z" fill="white"/>
<path d="M260.62 10.6849C261.63 7.75493 264.89 6.30493 267.71 6.30493C270.53 6.30493 272.86 7.76493 271.87 10.6849L270.38 15.0449C269.39 17.9649 266.22 19.4249 263.27 19.4249C260.32 19.4249 258.13 17.9649 259.12 15.0449L260.61 10.6849H260.62ZM262.56 15.0449C262.25 15.9649 263.18 16.4349 264.22 16.4349C265.33 16.4349 266.63 15.9649 266.97 14.9549L268.44 10.6849C268.77 9.73493 267.91 9.24493 266.79 9.24493C265.67 9.24493 264.38 9.73493 264.05 10.6849L262.56 15.0449Z" fill="white"/>
<path d="M275.08 6.49493H278.34L279.79 11.9349L280.08 14.4949L280.16 14.4749L280.53 12.2749L282.48 6.49493H285.89L281.6 19.2449H278.13L276.75 14.2249L276.43 11.6649L276.35 11.6849L275.93 14.1549L274.22 19.2549H270.79L275.08 6.50493V6.49493Z" fill="white"/>
<path d="M295.26 19.2449H291.58L291.54 16.6849H287.92L286.23 19.2449H282.55L291.58 6.49493H294.71L295.27 19.2449H295.26ZM291.69 13.8249L291.99 10.0949H291.86L289.66 13.8249H291.69Z" fill="white"/>
</svg>
