<svg width="322" height="73" viewBox="0 0 322 73" fill="none" xmlns="http://www.w3.org/2000/svg">
<path d="M27.06 69.96C29.56 69.96 31.9 70.01 34.23 69.91C34.61 69.89 35.16 69.24 35.28 68.79C37.71 59.33 40.09 49.85 42.48 40.38C44.07 34.07 45.65 27.75 47.23 21.43C47.33 21.03 47.37 20.62 47.46 20.06C44.46 20.2 41.88 21.11 39.52 22.63C39.18 22.85 38.98 23.4 38.86 23.84C37.2 29.91 35.53 35.98 33.97 42.08C33.56 43.68 32.82 44.34 31.15 44.28C28.21 44.18 25.26 44.26 22.31 44.25C20.24 44.25 19.88 43.78 20.39 41.78C22.12 35.05 23.87 28.33 25.61 21.61C25.72 21.2 25.78 20.77 25.91 20.12C25.19 20.12 24.61 20.12 24.04 20.12C16.89 20.12 9.75001 20.11 2.60001 20.13C1.52001 20.13 0.67001 19.95 0.26001 18.63H28.2C26.16 26.53 24.13 34.39 22.05 42.44C25.29 42.44 28.33 42.48 31.37 42.38C31.71 42.37 32.19 41.63 32.32 41.16C33.99 35.1 35.6 29.01 37.28 22.95C37.45 22.33 37.86 21.62 38.37 21.27C41.18 19.36 44.34 18.4 47.71 18.18C49.4 18.07 49.75 18.53 49.34 20.18C45.82 34.24 42.28 48.29 38.75 62.34C38.13 64.81 37.47 67.28 36.9 69.76C36.6 71.07 36 71.7 34.55 71.64C31.99 71.54 29.42 71.63 26.86 71.6C25.27 71.58 24.92 71.13 25.29 69.59C26.38 65.05 27.49 60.52 28.58 55.98C29.14 53.67 28.06 52.29 25.66 52.24C21.32 52.14 19.21 53.72 18.17 57.91C17.19 61.86 16.2 65.81 15.32 69.78C15.02 71.15 14.39 71.69 12.98 71.64C10.31 71.55 7.63001 71.61 4.96001 71.61C3.63001 71.61 3.09001 71.13 3.44001 69.68C6.61001 56.66 9.74001 43.63 12.88 30.6C12.99 30.14 13.1 29.68 13.24 29.11C13.83 29.23 14.34 29.33 15.01 29.47C11.76 42.94 8.53001 56.32 5.24001 69.95C7.92001 69.95 10.35 69.99 12.78 69.9C13.1 69.89 13.56 69.24 13.67 68.81C14.69 64.81 15.62 60.79 16.62 56.79C18.07 50.98 23.06 49.87 27.61 50.83C29.68 51.27 30.87 53.5 30.38 55.73C29.36 60.39 28.21 65.02 27.05 69.96H27.06Z" fill="white"/>
<path d="M153.7 69.98C154.23 67.86 154.71 65.91 155.26 63.72H136.73C139.12 54.01 141.44 44.54 143.81 34.91C146.23 34.91 148.62 34.91 151.01 34.91C154.39 34.91 157.77 34.88 161.16 34.93C162.15 34.95 162.62 34.67 162.81 33.65C163.1 32.06 163.57 30.5 164.01 28.71C163.34 28.67 162.78 28.61 162.22 28.61C154.91 28.61 147.6 28.61 140.29 28.61C137.84 28.61 136.99 29.26 136.39 31.64C133.88 41.64 131.38 51.64 128.87 61.64C128.75 62.11 128.6 62.57 128.43 63.12C127.91 63 127.46 62.9 126.83 62.77C127.57 59.7 128.26 56.76 128.99 53.83C130.82 46.46 132.68 39.1 134.51 31.73C135.44 28 136.99 26.75 140.83 26.75C148.58 26.75 156.32 26.75 164.07 26.75C164.72 26.75 165.37 26.75 166.31 26.75C165.48 30 164.72 33.08 163.84 36.12C163.76 36.41 162.86 36.59 162.34 36.6C157.21 36.63 152.08 36.66 146.96 36.59C145.65 36.57 145.09 36.91 144.77 38.28C142.93 46.09 140.96 53.87 138.98 61.85H157.53C156.74 64.99 156.08 67.94 155.21 70.83C155.07 71.3 154 71.78 153.35 71.78C145.01 71.81 136.66 71.76 128.31 71.73C123.13 71.71 117.95 71.67 112.77 71.64C111.71 71.64 110.78 71.51 110.85 69.99H153.69L153.7 69.98Z" fill="white"/>
<path d="M105.36 60.22C109.94 60.24 113.95 58.9 117.57 56.35C120.95 53.96 123.27 50.9 124.04 46.73C124.6 43.7 125.63 40.73 125.92 37.68C126.27 33.95 124.32 31.14 120.79 29.83C119.03 29.18 117.11 28.76 115.24 28.69C110.77 28.53 106.3 28.62 101.83 28.63C99.4599 28.63 98.4599 29.38 97.8799 31.68C94.9999 43.09 92.1399 54.51 89.2699 65.93C88.9399 67.23 88.6299 68.54 88.2699 70.02C90.8499 70.02 93.2999 70.07 95.7399 69.97C96.1199 69.95 96.6899 69.32 96.7999 68.87C99.3499 58.94 101.87 49 104.33 39.05C105.3 35.13 105.23 35.1 109.26 35.12C110.73 35.12 112.21 35.09 113.67 35.27C116.68 35.63 118.22 37.92 117.53 40.87C116.95 43.35 116.35 45.83 115.73 48.3C115.02 51.09 112.29 53.51 109.49 53.85C108.53 53.97 107.74 53.79 107.61 52.47C108.12 52.36 108.62 52.25 109.12 52.13C111.83 51.47 113.67 50.01 114.22 47.09C114.61 45.01 115.25 42.99 115.75 40.93C116.36 38.42 115.36 37.01 112.75 36.88C110.8 36.78 108.83 36.86 106.72 36.86C105.7 40.93 104.69 44.96 103.67 48.99C101.91 55.99 100.14 62.98 98.3899 69.98C98.0699 71.25 97.4099 71.94 95.9899 71.9C93.5399 71.83 91.0799 71.9 88.6299 71.87C86.7799 71.85 86.2099 71.11 86.6499 69.32C89.8399 56.53 93.0299 43.75 96.2299 30.96C96.8599 28.45 98.6999 26.82 101.25 26.82C106.59 26.82 111.95 26.73 117.26 27.14C121.83 27.49 125.8 29.45 127.21 34.27C127.77 36.16 127.69 38.36 127.4 40.35C127 43.07 126.17 45.74 125.43 48.4C123.62 54.9 118.83 58.45 112.89 60.7C111.08 61.38 109.09 61.62 107.17 61.94C106.15 62.11 105.38 61.65 105.35 60.22H105.36Z" fill="white"/>
<path d="M132.7 20.39H127.51C128.62 16.36 129.71 12.43 130.92 8.04C130.18 8.69 129.75 9.04 129.35 9.41C127.11 11.48 124.88 13.57 122.64 15.64C120.48 17.64 119.81 17.5 118.45 14.83C117.35 12.66 116.24 10.49 114.94 7.95C113.7 12.31 112.56 16.32 111.4 20.37H106.21C108.05 13.81 109.85 7.38 111.69 0.830001C113.09 0.830001 114.47 0.680001 115.79 0.890001C116.44 0.990001 117.22 1.63 117.55 2.24C119.04 4.94 120.39 7.71 121.86 10.59C124.47 8.18 127.17 6.09 129.37 3.56C131.78 0.790001 134.63 0.420001 138.13 0.980001C136.33 7.41 134.52 13.85 132.69 20.37L132.7 20.39Z" fill="white"/>
<path d="M230.64 44.42C230.95 42.72 231.2 41.23 231.51 39.75C231.86 38.06 231.13 36.74 229.46 36.23C226.12 35.2 222.06 37.57 221.43 40.72C220.33 46.25 218.78 51.68 217.39 57.15C216.6 60.27 217.8 61.82 221.03 61.79C223.72 61.77 225.79 60.44 227.2 57.73C227.64 57.8 228.14 57.88 228.63 57.96C228.22 60.51 225.95 62.81 223.01 63.26C221.41 63.5 219.61 63.41 218.07 62.93C215.86 62.24 214.88 60.01 215.43 57.79C216.91 51.79 218.39 45.78 219.93 39.79C221.03 35.51 226.53 32.95 230.55 34.78C232.86 35.83 233.77 37.76 233.21 40.45C233.07 41.14 232.93 41.82 232.77 42.64H241.39C241.65 41.33 241.99 40.07 242.15 38.79C242.8 33.8 239.8 29.88 234.29 28.43C226.99 26.52 217.37 30 213.44 36.44C211.99 38.82 211.41 41.77 210.67 44.53C209.38 49.35 208.22 54.21 207.09 59.07C206.15 63.09 208 65.99 211.24 68.02C215.62 70.75 220.45 70.61 225.13 69.15C230.67 67.43 235.28 64.38 237.33 58.5C237.46 58.14 238.35 58.04 238.89 57.82C239.08 58.04 239.27 58.27 239.47 58.49C238.37 60.38 237.57 62.55 236.13 64.12C230.12 70.66 222.65 73.2 213.94 71.1C209.75 70.09 206.51 67.54 205.49 63.11C205.1 61.44 205.19 59.52 205.57 57.83C206.92 51.8 208.42 45.79 209.99 39.81C211.73 33.18 216.68 29.68 222.68 27.47C226.97 25.89 231.44 25.76 235.85 27.09C240.56 28.51 245.66 33.24 243.58 40.56C243.4 41.18 243.2 41.84 243.22 42.47C243.29 44.36 242.21 44.48 240.71 44.44C237.4 44.35 234.08 44.41 230.63 44.41L230.64 44.42Z" fill="white"/>
<path d="M282.02 69.68C284.64 69.68 287.13 69.71 289.61 69.64C289.93 69.64 290.36 69.11 290.51 68.73C290.81 67.93 290.96 67.07 291.21 66.08C291.79 66.23 292.28 66.35 292.85 66.49C292.8 66.78 292.78 66.99 292.73 67.18C291.38 71.99 292.46 71.51 286.88 71.52C285.35 71.52 283.83 71.55 282.3 71.52C280.5 71.48 279.94 70.75 280.36 69.06C283.54 56.38 286.72 43.7 289.91 31.02C290.59 28.34 292.32 26.81 294.99 26.81C300.38 26.82 305.79 26.83 311.17 27.1C314.49 27.27 317.64 28.26 319.79 31.09C321.88 33.83 321.89 36.95 321.15 40.13C320.48 42.98 319.79 45.83 319.04 48.67C318.03 52.48 315.64 55.33 312.5 57.56C311.67 58.15 311.41 58.73 311.49 59.71C311.77 62.97 311.93 66.23 312.19 69.49C312.31 71.05 311.67 71.68 310.12 71.65C307.34 71.59 304.56 71.57 301.78 71.65C300.1 71.71 299.52 70.9 299.51 69.4C299.51 67.01 299.51 64.62 299.51 62.01C295.91 62.01 292.72 62.01 289.52 62.01C288.38 62.01 287.48 61.77 287.35 60.28H300.9C301.05 63.42 301.21 66.6 301.37 69.86H310.47C310.18 66.08 309.87 62.39 309.65 58.7C309.62 58.15 309.84 57.3 310.24 57.06C314.83 54.19 317.42 50.1 318.22 44.75C318.53 42.67 319.37 40.66 319.7 38.58C320.51 33.31 317.96 29.94 312.54 29.01C311.15 28.77 309.73 28.66 308.32 28.64C304.01 28.59 299.7 28.61 295.4 28.62C293.12 28.62 292.1 29.42 291.56 31.58C288.84 42.36 286.13 53.15 283.42 63.93C282.96 65.76 282.54 67.6 282.04 69.67L282.02 69.68Z" fill="white"/>
<path d="M181.64 62.02C177.98 62.02 174.82 62.02 171.67 62.02C170.52 62.02 169.66 61.73 169.5 60.28H183.04C183.22 63.43 183.39 66.57 183.57 69.83H192.62C192.4 66.77 192.3 63.73 191.93 60.73C191.68 58.72 191.69 57.24 193.75 55.97C197 53.96 199.06 50.89 199.82 47.05C200.51 43.54 201.45 40.07 201.86 36.53C202.22 33.38 200.52 31.04 197.57 29.95C195.76 29.28 193.79 28.78 191.88 28.71C186.98 28.53 182.07 28.62 177.16 28.64C175.41 28.64 174.23 29.5 173.8 31.18C170.61 43.86 167.45 56.54 164.28 69.23C164.26 69.32 164.33 69.43 164.38 69.62H172.36C172.69 68.53 173.05 67.36 173.44 66.09C174 66.25 174.49 66.39 174.95 66.52C174.97 66.73 175.01 66.85 174.98 66.95C173.45 72.07 174.74 71.52 168.98 71.54C167.4 71.54 165.82 71.58 164.24 71.54C162.7 71.49 162.1 70.67 162.47 69.16C165.65 56.48 168.83 43.8 172.05 31.13C172.8 28.17 174.54 26.81 177.57 26.83C182.86 26.87 188.14 26.91 193.42 27.12C196.06 27.23 198.59 28.01 200.67 29.77C203.26 31.95 204.2 34.83 203.61 38.11C203.03 41.31 202.23 44.47 201.52 47.65C200.6 51.78 198.33 55.01 194.91 57.42C193.95 58.1 193.57 58.8 193.68 59.97C193.96 63.06 194.19 66.16 194.34 69.26C194.45 71.43 194.19 71.65 192.08 71.66C189.35 71.67 186.63 71.68 183.9 71.66C182.17 71.65 181.69 71.18 181.67 69.4C181.63 67.01 181.67 64.63 181.67 62.05L181.64 62.02Z" fill="white"/>
<path d="M170.94 7.27C169.78 11.39 168.65 15.16 167.67 18.97C167.36 20.18 166.82 20.55 165.65 20.45C164.51 20.36 163.37 20.43 162.03 20.43C162.93 17.15 163.79 13.98 164.67 10.83C165.49 7.9 166.41 5 167.15 2.06C167.41 1.02 167.91 0.919997 168.82 0.789997C171.62 0.379997 173.33 1.45 174.67 3.96C176.45 7.31 178.65 10.43 180.85 13.94C182.15 9.39 183.36 5.14 184.58 0.879997H189.76C188.51 5.39 187.28 9.81 186.04 14.23C185.56 15.95 185.11 17.69 184.51 19.38C184.35 19.83 183.68 20.09 183.23 20.44C183.2 20.47 183.12 20.44 183.07 20.44C180.22 20.97 178.46 19.81 177.09 17.23C175.32 13.89 173.12 10.77 170.93 7.27H170.94Z" fill="white"/>
<path d="M85.1 5.04C84.81 6.19 84.56 7.17 84.26 8.34H95.48C95.09 9.8 94.74 11.1 94.35 12.56C91.38 12.56 88.4 12.56 85.41 12.56C83.7833 12.56 82.7633 13.36 82.35 14.96C82.26 15.32 82.18 15.68 82.05 16.22H96.65C96.31 17.5 96.1 18.63 95.69 19.67C95.55 20.02 94.92 20.4 94.51 20.4C89.17 20.45 83.83 20.46 78.48 20.42C76.69 20.41 75.88 19.3 76.35 17.6C77.81 12.32 79.3 7.05 80.84 1.79C80.96 1.38 81.62 0.860003 82.03 0.860003C87.97 0.800003 93.91 0.820003 100.03 0.820003C99.69 2.06 99.49 3.24 99.02 4.29C98.84 4.69 98.03 4.99 97.5 5C93.42 5.06 89.33 5.03 85.1 5.03V5.04Z" fill="white"/>
<path d="M211.71 1.64C210.7 5.49 210.71 5.4 206.77 5.01C204.23 4.76 201.66 4.8 199.11 4.76C198.58 4.76 197.93 4.78 197.53 5.06C196.93 5.48 196.5 6.14 196 6.7C196.49 7.1 196.94 7.77 197.47 7.86C199.78 8.23 202.11 8.42 204.44 8.69C205.41 8.8 206.41 8.85 207.34 9.11C211.09 10.15 211.48 11.49 210.86 15.04C210.28 18.37 207.91 19.99 204.67 20.38C199.31 21.02 194.02 20.56 188.79 19.33C188.64 19.29 188.51 19.18 188.26 19.04C188.6 17.78 188.95 16.51 189.28 15.28C192.38 15.66 195.38 16.14 198.4 16.37C200.34 16.51 202.33 16.43 204.25 16.13C204.93 16.02 205.47 14.98 206.07 14.36C205.48 13.91 204.93 13.16 204.28 13.06C201.16 12.58 198 12.38 194.89 11.89C192.1 11.46 190.6 10.08 190.83 8.04C191.23 4.38 192.53 1.56 196.76 0.929996C201.48 0.219996 206.21 0.449996 210.9 1.4C211.16 1.45 211.41 1.55 211.72 1.64H211.71Z" fill="white"/>
<path d="M67.41 47.24C66.82 47.34 66.4 47.41 65.7 47.53C64.82 41.32 63.95 35.15 63.07 28.95C60.97 28.95 58.91 28.77 56.9 29.01C55.25 29.2 54.33 30.59 54.56 32.39C54.93 35.29 55.51 38.17 56.04 41.06C57.06 46.61 58.31 52.14 59.03 57.73C59.31 59.87 58.44 62.18 57.99 64.39C57.59 66.3 57.04 68.17 56.48 70.32C59.15 70.32 61.69 70.36 64.21 70.27C64.52 70.26 64.94 69.56 65.07 69.11C65.86 66.29 66.5 63.43 67.34 60.62C67.72 59.35 68.26 58.06 69 56.97C75.02 48.08 81.1 39.23 87.16 30.36C87.45 29.93 87.7 29.47 88.13 28.75C84.38 28.75 80.92 28.75 77.45 28.75C76.63 28.75 75.78 28.88 75.01 28.68C74.43 28.53 73.96 27.97 73.44 27.59C73.52 27.45 73.61 27.3 73.69 27.16H91.38C91.07 27.67 90.84 28.1 90.56 28.51C83.76 38.45 76.87 48.33 70.21 58.36C69 60.18 68.65 62.59 68.01 64.75C67.48 66.52 67.09 68.33 66.67 70.12C66.37 71.37 65.77 72.11 64.32 72.06C61.76 71.98 59.19 72.07 56.63 72.03C54.87 72 54.43 71.35 54.87 69.64C55.65 66.65 56.37 63.64 57.2 60.66C57.93 58.04 56.89 55.61 56.47 53.14C55.32 46.34 53.93 39.59 52.69 32.81C52.18 30.01 54.48 27.23 57.41 27.09C59.31 27 61.23 27.07 63.14 27.07C63.57 27.07 64 27.07 64.58 27.07C65.52 33.79 66.45 40.43 67.41 47.25V47.24Z" fill="white"/>
<path d="M155.6 0.829999C157.07 7.4 158.51 13.79 159.99 20.43C158.47 20.43 157.03 20.47 155.6 20.39C155.32 20.37 154.92 19.92 154.82 19.59C154.5 18.55 154.31 17.48 154.02 16.22C150.58 16.22 147.12 16.19 143.66 16.26C143.29 16.26 142.79 16.75 142.59 17.13C140.93 20.34 138.25 21.06 134.79 20.23C135.12 19.77 135.46 19.26 135.83 18.79C140.21 13.29 144.55 7.77 149.04 2.36C149.7 1.56 150.99 1.14 152.07 0.889999C153.15 0.639999 154.34 0.839999 155.61 0.839999L155.6 0.829999ZM151.68 5.67C149.91 7.91 148.39 9.83 146.74 11.93H153.06C152.61 9.9 152.18 7.97 151.68 5.67Z" fill="white"/>
<path d="M65.0801 0.830001C63.6201 6.03 62.2201 11.03 60.7701 16.21H74.6301C74.2201 17.69 73.8701 18.98 73.4601 20.44C71.6901 20.44 69.9001 20.44 68.1201 20.44C64.6301 20.44 61.1401 20.45 57.6501 20.44C55.4301 20.43 54.6701 19.47 55.2401 17.37C56.6501 12.24 58.1101 7.13 59.5101 2C59.7501 1.12 60.1401 0.750001 61.0801 0.820001C62.3301 0.910001 63.5801 0.840001 65.0701 0.840001L65.0801 0.830001Z" fill="white"/>
<path d="M274.65 28.62C265.93 28.62 257.53 28.62 249.14 28.62C248.65 28.62 248.08 28.76 247.69 28.56C247.13 28.28 246.69 27.74 246.2 27.32C246.29 27.18 246.39 27.04 246.48 26.9H276.04C276.04 30.47 276.13 33.99 276.02 37.51C275.8 44.38 275.48 51.25 275.18 58.11C275.01 61.92 274.79 65.73 274.62 69.54C274.57 70.6 274.11 70.89 272.88 70.45C273.46 56.64 274.05 42.73 274.64 28.62H274.65Z" fill="white"/>
<path d="M256.41 37.3C256.86 37.51 257.3 37.72 257.89 37.99C252.99 48.61 248.11 59.18 243.14 69.96C245.93 69.96 248.44 70.01 250.93 69.91C251.36 69.89 251.94 69.35 252.15 68.9C253.36 66.41 254.45 63.86 255.65 61.36C255.85 60.95 256.35 60.42 256.72 60.41C259.21 60.33 261.71 60.37 264.13 60.37V70.55H262.39V62.08C260.83 62.08 259.22 62.02 257.63 62.13C257.32 62.15 256.97 62.76 256.77 63.16C255.65 65.52 254.65 67.94 253.44 70.25C253.11 70.88 252.2 71.57 251.52 71.6C248.69 71.75 245.85 71.7 243.02 71.64C241.42 71.61 240.86 70.69 241.52 69.25C246.33 58.78 251.16 48.31 256 37.85C256.09 37.66 256.25 37.5 256.4 37.29L256.41 37.3Z" fill="white"/>
<path d="M180.51 44.65C179.17 44.86 178.75 44.35 179.06 43.19C179.68 40.83 180.25 38.46 180.93 36.12C181.05 35.71 181.65 35.15 182.03 35.14C184.53 35.09 187.05 35.07 189.55 35.24C192.54 35.45 193.98 37.41 193.36 40.36C192.76 43.23 192.1 46.08 191.32 48.91C190.6 51.53 187.55 53.77 184.63 53.86C181.58 53.95 178.52 53.95 175.47 53.86C174.84 53.84 174.23 53.26 173.61 52.93C173.68 52.71 173.75 52.48 173.82 52.26C176.67 52.26 179.52 52.29 182.37 52.24C183.45 52.22 184.58 52.2 185.59 51.89C187.79 51.22 189.38 49.91 189.88 47.45C190.35 45.11 191.05 42.82 191.62 40.51C192.18 38.24 191.37 37.04 189.01 36.87C187.17 36.74 185.3 36.75 183.45 36.87C183.02 36.9 182.39 37.5 182.25 37.96C181.59 40.18 181.06 42.45 180.5 44.64L180.51 44.65Z" fill="white"/>
<path d="M291.75 52.27C294.8 52.27 297.84 52.27 300.89 52.27C304.83 52.26 307.06 50.46 307.95 46.66C308.43 44.6 308.95 42.55 309.45 40.5C309.99 38.27 309.28 37.11 306.99 36.91C305.04 36.74 303.07 36.78 301.11 36.88C300.74 36.9 300.2 37.54 300.07 37.98C299.44 40.16 298.93 42.38 298.37 44.59C297.02 44.9 296.58 44.4 296.89 43.17C297.5 40.81 298.08 38.44 298.77 36.1C298.89 35.69 299.5 35.15 299.9 35.14C302.4 35.09 304.92 35.07 307.41 35.25C310.36 35.46 311.79 37.35 311.21 40.28C310.63 43.2 309.93 46.11 309.12 48.97C308.4 51.54 305.4 53.75 302.55 53.85C299.45 53.96 296.34 53.95 293.24 53.85C292.63 53.83 292.03 53.23 291.43 52.89C291.54 52.68 291.64 52.47 291.75 52.26V52.27Z" fill="white"/>
<path d="M265.35 53.81H258.62C261.23 47.73 263.8 41.73 266.38 35.73C266.49 35.75 266.6 35.76 266.71 35.78C266.26 41.73 265.82 47.68 265.36 53.81H265.35ZM263.7 52.21C263.86 50.17 264.01 48.26 264.16 46.35L263.76 46.26C262.94 48.19 262.12 50.13 261.24 52.21H263.7Z" fill="white"/>
<path d="M151.75 45.91C149.59 45.69 147.51 45.51 145.45 45.23C145.24 45.2 145.1 44.64 144.82 44.13H154.02C153.22 47.33 152.43 50.52 151.57 53.93C149.48 53.27 146.96 55.01 145.42 52.04C146.64 52.04 147.88 52.13 149.09 52C149.6 51.94 150.33 51.48 150.47 51.05C151.01 49.35 151.35 47.59 151.75 45.9V45.91Z" fill="white"/>
</svg>
